<?xml version="1.0" encoding="UTF-8" standalone="no"?>
<!DOCTYPE svg PUBLIC "-//W3C//DTD SVG 1.1//EN" "http://www.w3.org/Graphics/SVG/1.1/DTD/svg11.dtd">
<!-- Generated by Microsoft Visio, SVG Export docs-diagram-2.svg Page-1 -->
<svg xmlns="http://www.w3.org/2000/svg" xmlns:xlink="http://www.w3.org/1999/xlink" xmlns:ev="http://www.w3.org/2001/xml-events"
		xmlns:v="http://schemas.microsoft.com/visio/2003/SVGExtensions/" width="10.5069in" height="8.00694in"
		viewBox="0 0 756.5 576.5" xml:space="preserve" color-interpolation-filters="sRGB" class="st46">
	<v:documentProperties v:langID="1033" v:viewMarkup="false"/>

	<style type="text/css">
	<![CDATA[
		.st1 {fill:none;stroke:#c7c8c8;stroke-width:0.25}
		.st2 {fill:#182d34;fill-opacity:0.3;stroke:#141d22;stroke-dasharray:7,5,0.01,5,0.01,5;stroke-width:1}
		.st3 {fill:#feffff;font-family:Open Sans Condensed Light;font-size:1.99999em}
		.st4 {fill:#f2f2f2;stroke:#141d22;stroke-dasharray:3.5,2.5;stroke-width:0.5}
		.st5 {fill:#e6ebed;stroke:#141d22;stroke-width:0.25}
		.st6 {fill:#141d22;font-family:Open Sans Condensed Light;font-size:1.16666em}
		.st7 {font-size:1em}
		.st8 {marker-end:url(#mrkr4-21);stroke:#141d22;stroke-linecap:round;stroke-linejoin:round;stroke-width:2.25}
		.st9 {fill:#141d22;fill-opacity:1;stroke:#141d22;stroke-opacity:1;stroke-width:0.47169811320755}
		.st10 {fill:none;stroke:none;stroke-width:0.25}
		.st11 {fill:#d15344;font-family:Open Sans Condensed Light;font-size:2.16666em}
		.st12 {font-size:1em;text-decoration:underline}
		.st13 {fill:#f2f2f2;stroke:#141d22;stroke-dasharray:7,5,0.01,5,0.01,5;stroke-width:1}
		.st14 {fill:#141d22;font-family:Open Sans Condensed Light;font-size:1.5em}
		.st15 {fill:#f2f2f2;font-family:Fujita Ray;font-size:3.33334em}
		.st16 {fill:#e1483b;font-size:1em}
		.st17 {fill:#d9e3e8;stroke:none;stroke-linecap:butt;stroke-width:0.425}
		.st18 {fill:#ffffff;stroke:none;stroke-linecap:butt;stroke-width:0.425}
		.st19 {fill:none}
		.st20 {stroke:#ffffff;stroke-linecap:butt;stroke-width:1.30071}
		.st21 {fill:#dce5e9;stroke:none;stroke-linecap:butt;stroke-width:0.425}
		.st22 {fill:#1e2c33;stroke:none;stroke-linecap:butt;stroke-width:0.425}
		.st23 {fill:#334650;stroke:none;stroke-linecap:butt;stroke-width:0.425}
		.st24 {fill:#5a7989;stroke:none;stroke-linecap:butt;stroke-width:0.425}
		.st25 {fill:#ffb83d;stroke:none;stroke-linecap:butt;stroke-width:0.425}
		.st26 {fill:#00c543;stroke:none;stroke-linecap:butt;stroke-width:0.425}
		.st27 {fill:#ff4a4a;stroke:none;stroke-linecap:butt;stroke-width:0.425}
		.st28 {fill:#ffffff;stroke:none;stroke-width:0.25}
		.st29 {fill:#d73a49;font-family:Open Sans Condensed Light;font-size:0.75em}
		.st30 {fill:#141d22;font-size:1em}
		.st31 {fill:#fee599;fill-opacity:0.3;stroke:#141d22;stroke-dasharray:7,5,0.01,5,0.01,5;stroke-width:1}
		.st32 {fill:#f2f2f2;font-family:Open Sans Condensed Light;font-size:1.5em}
		.st33 {fill:#f2f2f2;font-family:Fujita Ray;font-size:2.50001em}
		.st34 {fill:#ffffff;stroke:#141d22;stroke-width:0.25}
		.st35 {fill:#141d22;font-family:Open Sans Condensed Light;font-size:1.00001em}
		.st36 {fill:#d15344;stroke:none;stroke-linecap:butt;stroke-width:0.95625}
		.st37 {fill:#d15344;stroke:none;stroke-linecap:butt;stroke-width:1.36607}
		.st38 {fill:#d15344;stroke:none;stroke-linecap:butt;stroke-width:1.0625}
		.st39 {marker-end:url(#mrkr4-21);stroke:#141d22;stroke-dasharray:2.25,4.5;stroke-linecap:round;stroke-linejoin:round;stroke-width:2.25}
		.st40 {marker-end:url(#mrkr4-252);stroke:#141d22;stroke-linecap:round;stroke-linejoin:round;stroke-width:1.5}
		.st41 {fill:#141d22;fill-opacity:1;stroke:#141d22;stroke-opacity:1;stroke-width:0.37313432835821}
		.st42 {fill:#e6ebed;stroke:none;stroke-width:0.25}
		.st43 {fill:#db5a60;stroke:none;stroke-linecap:butt;stroke-width:15.1037}
		.st44 {fill:#ffffff;stroke:none;stroke-linecap:butt;stroke-width:15.1037}
		.st45 {fill:#d15344;stroke:none;stroke-linecap:butt;stroke-width:1.19531}
		.st46 {fill:none;fill-rule:evenodd;font-size:12px;overflow:visible;stroke-linecap:square;stroke-miterlimit:3}
	]]>
	</style>

	<defs id="Markers">
		<g id="lend4">
			<path d="M 2 1 L 0 0 L 2 -1 L 2 1 " style="stroke:none"/>
		</g>
		<marker id="mrkr4-21" class="st9" v:arrowType="4" v:arrowSize="2" v:setback="4.24" refX="-4.24" orient="auto"
				markerUnits="strokeWidth" overflow="visible">
			<use xlink:href="#lend4" transform="scale(-2.12,-2.12) "/>
		</marker>
		<marker id="mrkr4-252" class="st41" v:arrowType="4" v:arrowSize="2" v:setback="5.36" refX="-5.36" orient="auto"
				markerUnits="strokeWidth" overflow="visible">
			<use xlink:href="#lend4" transform="scale(-2.68,-2.68) "/>
		</marker>
	</defs>
	<g v:mID="0" v:index="1" v:groupContext="foregroundPage">
		<title>Page-1</title>
		<v:pageProperties v:drawingScale="1" v:pageScale="1" v:drawingUnits="0" v:shadowOffsetX="9" v:shadowOffsetY="-9"/>
		<v:layer v:name="Connector" v:index="0"/>
		<g id="shape842-1" v:mID="842" v:groupContext="shape" transform="translate(0.25,-0.25)">
			<title>Rectangle.842</title>
			<v:userDefs>
				<v:ud v:nameU="visVersion" v:val="VT0(15):26"/>
			</v:userDefs>
			<rect x="0" y="0.5" width="756" height="576" class="st1"/>
		</g>
		<g id="shape317-3" v:mID="317" v:groupContext="shape" transform="translate(201.66,-22.8941)">
			<title>Rectangle</title>
			<desc>Platform</desc>
			<v:userDefs>
				<v:ud v:nameU="visVersion" v:val="VT0(15):26"/>
			</v:userDefs>
			<v:textBlock v:margins="rect(4,4,4,4)" v:verticalAlign="2"/>
			<v:textRect cx="194.59" cy="490.343" width="389.18" height="172.314"/>
			<path d="M0 576.5 L389.18 576.5 L389.18 404.19 L0 404.19 L0 576.5 Z" class="st2"/>
			<text x="319.29" y="565.3" class="st3" v:langID="1033"><v:paragraph v:horizAlign="2"/><v:tabList/>Platform</text>		</g>
		<g id="shape348-6" v:mID="348" v:groupContext="shape" transform="translate(396.812,-211.23)">
			<title>Sheet.348</title>
			<path d="M0 576.5 L300.94 576.5 L300.94 270.96 L0 270.96 L0 576.5 Z" class="st4"/>
		</g>
		<g id="shape367-8" v:mID="367" v:groupContext="shape" transform="translate(221.165,-118.744)">
			<title>Sheet.367</title>
			<desc>Auth Validator</desc>
			<v:textBlock v:margins="rect(4,4,4,4)"/>
			<v:textRect cx="39.6" cy="551.3" width="79.21" height="50.4"/>
			<rect x="0" y="526.1" width="79.2" height="50.4" class="st5"/>
			<text x="29.34" y="547.1" class="st6" v:langID="1033"><v:paragraph v:horizAlign="1"/><v:tabList/>Auth<v:newlineChar/><tspan
						x="19.48" dy="1.2em" class="st7">Validator</tspan></text>		</g>
		<g id="shape368-12" v:mID="368" v:groupContext="shape" transform="translate(330.065,-118.744)">
			<title>Sheet.368</title>
			<desc>Instrument Registry</desc>
			<v:textBlock v:margins="rect(4,4,4,4)"/>
			<v:textRect cx="39.6" cy="551.3" width="79.21" height="50.4"/>
			<rect x="0" y="526.1" width="79.2" height="50.4" class="st5"/>
			<text x="14.87" y="547.1" class="st6" v:langID="1033"><v:paragraph v:horizAlign="1"/><v:tabList/>Instrument<v:newlineChar/><tspan
						x="22.15" dy="1.2em" class="st7">Registry</tspan></text>		</g>
		<g id="shape373-16" v:mID="373" v:groupContext="shape" v:layerMember="0" transform="translate(300.365,-134.944)">
			<title>Dynamic connector.373</title>
			<path d="M0 567.5 L20.16 567.5" class="st8"/>
		</g>
		<g id="shape403-22" v:mID="403" v:groupContext="shape" transform="translate(396.812,-522.394)">
			<title>Sheet.403</title>
			<desc>Software Application</desc>
			<v:textBlock v:margins="rect(4,4,4,4)"/>
			<v:textRect cx="150.469" cy="560.894" width="300.94" height="31.2118"/>
			<rect x="0" y="545.288" width="300.937" height="31.2118" class="st10"/>
			<text x="64.41" y="568.69" class="st11" v:langID="1033"><v:paragraph v:horizAlign="1"/><v:tabList/><tspan class="st12">Software Application</tspan></text>		</g>
		<g id="shape516-26" v:mID="516" v:groupContext="shape" transform="translate(434.465,-84.625)">
			<title>Sheet.516</title>
			<desc>SkyWalking OAP</desc>
			<v:textBlock v:margins="rect(4,4,4,4)" v:verticalAlign="0"/>
			<v:textRect cx="69.1875" cy="530.941" width="138.38" height="91.1181"/>
			<path d="M0 576.5 L138.37 576.5 L138.37 485.38 L0 485.38 L0 576.5 Z" class="st13"/>
			<text x="4" y="505.58" class="st14" v:langID="1033"><v:paragraph/><v:tabList/>SkyWalking OAP</text>		</g>
		<g id="shape517-29" v:mID="517" v:groupContext="shape" transform="translate(477.357,-99.2088)">
			<title>Sheet.517</title>
			<desc>Instrument Processor</desc>
			<v:textBlock v:margins="rect(4,4,4,4)"/>
			<v:textRect cx="39.6" cy="555.962" width="79.21" height="41.0757"/>
			<rect x="0" y="535.424" width="79.2" height="41.0757" class="st5"/>
			<text x="14.87" y="551.76" class="st6" v:langID="1033"><v:paragraph v:horizAlign="1"/><v:tabList/>Instrument<v:newlineChar/><tspan
						x="17.77" dy="1.2em" class="st7">Processor</tspan></text>		</g>
		<g id="shape520-33" v:mID="520" v:groupContext="shape" transform="translate(330.065,-44.4941)">
			<title>Sheet.520</title>
			<desc>Instrument PII Sanitizer</desc>
			<v:textBlock v:margins="rect(4,4,4,4)"/>
			<v:textRect cx="39.6" cy="551.3" width="79.21" height="50.4"/>
			<rect x="0" y="526.1" width="79.2" height="50.4" class="st5"/>
			<text x="14.87" y="547.1" class="st6" v:langID="1033"><v:paragraph v:horizAlign="1"/><v:tabList/>Instrument<v:newlineChar/><tspan
						x="13.47" dy="1.2em" class="st7">PII Sanitizer</tspan></text>		</g>
		<g id="shape526-37" v:mID="526" v:groupContext="shape" v:layerMember="0" transform="translate(516.957,-99.2088)">
			<title>Dynamic connector.526</title>
			<path d="M0 576.5 L0 606.01 L-98.15 606.01" class="st8"/>
		</g>
		<g id="shape829-42" v:mID="829" v:groupContext="shape" transform="translate(58.75,-522.394)">
			<title>Sheet.829</title>
			<desc>Developer IDE</desc>
			<v:textBlock v:margins="rect(4,4,4,4)"/>
			<v:textRect cx="146.812" cy="560.894" width="293.63" height="31.2118"/>
			<rect x="0" y="545.288" width="293.625" height="31.2118" class="st10"/>
			<text x="87.59" y="568.69" class="st11" v:langID="1033"><v:paragraph v:horizAlign="1"/><v:tabList/><tspan class="st12">Developer IDE</tspan></text>		</g>
		<g id="shape831-46" v:mID="831" v:groupContext="shape" transform="translate(466.893,-29.3941)">
			<title>Sheet.831</title>
			<desc>S++</desc>
			<v:textBlock v:margins="rect(4,4,4,4)"/>
			<v:textRect cx="28.3219" cy="569.5" width="56.65" height="14"/>
			<rect x="0" y="562.5" width="56.6437" height="14" rx="4.5" ry="4.5" class="st10"/>
			<text x="8.19" y="581.5" class="st15" v:langID="1033"><v:paragraph v:horizAlign="1"/><v:tabList/>S<tspan class="st16">++</tspan></text>		</g>
		<g id="shape830-50" v:mID="830" v:groupContext="shape" transform="translate(58.75,-321.019)">
			<title>Sheet.830</title>
			<path d="M0 576.5 L293.62 576.5 L293.62 380.75 L0 380.75 L0 576.5 Z" class="st4"/>
		</g>
		<g id="group726-52" transform="translate(79.8256,-340.371)" v:mID="726" v:groupContext="group">
			<title>Sheet.726</title>
			<g id="group727-53" v:mID="727" v:groupContext="group">
				<title>Sheet.727</title>
				<g id="shape728-54" v:mID="728" v:groupContext="shape">
					<title>Sheet.728</title>
					<path d="M1.75 419.45 L249.73 419.45 C250.69 419.45 251.47 420.24 251.47 421.2 L251.47 574.76 C251.47 575.71
								 250.69 576.5 249.73 576.5 L1.75 576.5 C0.79 576.5 0 575.71 0 574.76 L0 421.2 C0 420.24 0.79 419.45
								 1.75 419.45 Z" class="st17"/>
				</g>
				<g id="shape729-56" v:mID="729" v:groupContext="shape" transform="translate(53.0889,-4.36242)">
					<title>Sheet.729</title>
					<path d="M1.4 442.66 L193.32 442.66 C194.09 442.66 194.72 443.29 194.72 444.06 L194.72 575.1 C194.72 575.87 194.09
								 576.5 193.32 576.5 L1.4 576.5 C0.63 576.5 0 575.87 0 575.1 L0 444.06 C0 443.29 0.63 442.66 1.4 442.66
								 Z" class="st18"/>
				</g>
				<g id="shape730-58" v:mID="730" v:groupContext="shape" transform="translate(53.4382,-123.893)">
					<title>Sheet.730</title>
					<rect x="0" y="562.191" width="194.368" height="14.3087" class="st17"/>
				</g>
				<g id="shape731-60" v:mID="731" v:groupContext="shape" transform="translate(240.472,-130.157)">
					<title>Sheet.731</title>
					<path d="M0 575.07 L1.43 576.5 L2.86 575.07 L0 575.07 Z" class="st19"/>
					<path d="M0 575.07 L1.43 576.5 L2.86 575.07" class="st20"/>
				</g>
				<g id="shape732-63" v:mID="732" v:groupContext="shape" transform="translate(53.1238,-123.893)">
					<title>Sheet.732</title>
					<path d="M0 563.59 C0 562.82 0.63 562.19 1.4 562.19 L39.1 562.19 C39.87 562.19 40.5 562.82 40.5 563.59 L40.5
								 576.5 L0 576.5 L0 563.59 Z" class="st18"/>
				</g>
				<g id="shape733-65" v:mID="733" v:groupContext="shape" transform="translate(64.7894,-129.651)">
					<title>Sheet.733</title>
					<path d="M1.31 573.88 L15.98 573.88 C16.7 573.88 17.29 574.48 17.29 575.19 C17.29 575.91 16.7 576.5 15.98 576.5
								 L1.31 576.5 C0.59 576.5 0 575.91 0 575.19 C0 574.48 0.59 573.88 1.31 573.88 Z" class="st21"/>
				</g>
				<g id="shape734-67" v:mID="734" v:groupContext="shape" transform="translate(105.13,-129.651)">
					<title>Sheet.734</title>
					<path d="M1.31 573.88 L15.98 573.88 C16.7 573.88 17.29 574.48 17.29 575.19 C17.29 575.91 16.7 576.5 15.98 576.5
								 L1.31 576.5 C0.59 576.5 0 575.91 0 575.19 C0 574.48 0.59 573.88 1.31 573.88 Z" class="st18"/>
				</g>
				<g id="shape735-69" v:mID="735" v:groupContext="shape" transform="translate(137.437,-129.651)">
					<title>Sheet.735</title>
					<path d="M1.31 573.88 L15.98 573.88 C16.7 573.88 17.29 574.48 17.29 575.19 C17.29 575.91 16.7 576.5 15.98 576.5
								 L1.31 576.5 C0.59 576.5 0 575.91 0 575.19 C0 574.48 0.59 573.88 1.31 573.88 Z" class="st18"/>
				</g>
				<g id="shape736-71" v:mID="736" v:groupContext="shape" transform="translate(217.071,-129.651)">
					<title>Sheet.736</title>
					<path d="M1.31 573.88 L15.98 573.88 C16.7 573.88 17.29 574.48 17.29 575.19 C17.29 575.91 16.7 576.5 15.98 576.5
								 L1.31 576.5 C0.59 576.5 0 575.91 0 575.19 C0 574.48 0.59 573.88 1.31 573.88 Z" class="st18"/>
				</g>
				<g id="group737-73" transform="translate(3.84196,-4.36242)" v:mID="737" v:groupContext="group">
					<title>Sheet.737</title>
					<g id="group738-74" v:mID="738" v:groupContext="group">
						<title>Sheet.738</title>
						<g id="shape739-75" v:mID="739" v:groupContext="shape">
							<title>Sheet.739</title>
							<path d="M1.4 442.66 L44.71 442.66 C45.47 442.66 46.1 443.29 46.1 444.06 L46.1 575.1 C46.1 575.87 45.47
										 576.5 44.71 576.5 L1.4 576.5 C0.63 576.5 0 575.87 0 575.1 L0 444.06 C0 443.29 0.63 442.66
										 1.4 442.66 Z" class="st22"/>
						</g>
						<g id="shape740-77" v:mID="740" v:groupContext="shape" transform="translate(4.81992,-75.0336)">
							<title>Sheet.740</title>
							<path d="M1.4 554.69 L32.38 554.69 C33.15 554.69 33.77 555.32 33.77 556.08 L33.77 575.1 C33.77 575.87
										 33.15 576.5 32.38 576.5 L1.4 576.5 C0.63 576.5 0 575.87 0 575.1 L0 556.08 C0 555.32 0.63
										 554.69 1.4 554.69 Z" class="st23"/>
						</g>
						<g id="shape741-79" v:mID="741" v:groupContext="shape" transform="translate(6.63611,-112.725)">
							<title>Sheet.741</title>
							<path d="M1.22 574.06 L29.86 574.06 C30.54 574.06 31.08 574.6 31.08 575.28 C31.08 575.96 30.54 576.5
										 29.86 576.5 L1.22 576.5 C0.54 576.5 0 575.96 0 575.28 C0 574.6 0.54 574.06 1.22 574.06 Z"
									class="st23"/>
						</g>
						<g id="shape742-81" v:mID="742" v:groupContext="shape" transform="translate(6.63611,-106.443)">
							<title>Sheet.742</title>
							<path d="M1.22 574.06 L26.89 574.06 C27.57 574.06 28.12 574.6 28.12 575.28 C28.12 575.96 27.57 576.5
										 26.89 576.5 L1.22 576.5 C0.54 576.5 0 575.96 0 575.28 C0 574.6 0.54 574.06 1.22 574.06 Z"
									class="st23"/>
						</g>
						<g id="shape743-83" v:mID="743" v:groupContext="shape" transform="translate(6.63611,-100.161)">
							<title>Sheet.743</title>
							<path d="M1.22 574.06 L29.51 574.06 C30.19 574.06 30.74 574.6 30.74 575.28 C30.74 575.96 30.19 576.5
										 29.51 576.5 L1.22 576.5 C0.54 576.5 0 575.96 0 575.28 C0 574.6 0.54 574.06 1.22 574.06 Z"
									class="st23"/>
						</g>
						<g id="shape744-85" v:mID="744" v:groupContext="shape" transform="translate(11.5259,-90.9128)">
							<title>Sheet.744</title>
							<path d="M1.22 574.06 L10.13 574.06 C10.81 574.06 11.35 574.6 11.35 575.28 C11.35 575.96 10.81 576.5
										 10.13 576.5 L1.22 576.5 C0.54 576.5 0 575.96 0 575.28 C0 574.6 0.54 574.06 1.22 574.06 Z"
									class="st24"/>
						</g>
						<g id="shape745-87" v:mID="745" v:groupContext="shape" transform="translate(6.63611,-90.3893)">
							<title>Sheet.745</title>
							<ellipse cx="1.74635" cy="574.755" rx="1.74635" ry="1.74497" class="st24"/>
						</g>
						<g id="shape746-89" v:mID="746" v:groupContext="shape" transform="translate(11.5259,-84.6309)">
							<title>Sheet.746</title>
							<path d="M1.22 574.06 L17.99 574.06 C18.67 574.06 19.21 574.6 19.21 575.28 C19.21 575.96 18.67 576.5
										 17.99 576.5 L1.22 576.5 C0.54 576.5 0 575.96 0 575.28 C0 574.6 0.54 574.06 1.22 574.06 Z"
									class="st24"/>
						</g>
						<g id="shape747-91" v:mID="747" v:groupContext="shape" transform="translate(6.63611,-84.1074)">
							<title>Sheet.747</title>
							<ellipse cx="1.74635" cy="574.755" rx="1.74635" ry="1.74497" class="st24"/>
						</g>
						<g id="shape748-93" v:mID="748" v:groupContext="shape" transform="translate(11.5259,-78.349)">
							<title>Sheet.748</title>
							<path d="M1.22 574.06 L14.84 574.06 C15.53 574.06 16.07 574.6 16.07 575.28 C16.07 575.96 15.53 576.5
										 14.84 576.5 L1.22 576.5 C0.54 576.5 0 575.96 0 575.28 C0 574.6 0.54 574.06 1.22 574.06 Z"
									class="st24"/>
						</g>
						<g id="shape749-95" v:mID="749" v:groupContext="shape" transform="translate(6.63611,-77.8255)">
							<title>Sheet.749</title>
							<ellipse cx="1.74635" cy="574.755" rx="1.74635" ry="1.74497" class="st24"/>
						</g>
						<g id="shape750-97" v:mID="750" v:groupContext="shape" transform="translate(11.5259,-69.2752)">
							<title>Sheet.750</title>
							<path d="M1.22 574.06 L14.84 574.06 C15.53 574.06 16.07 574.6 16.07 575.28 C16.07 575.96 15.53 576.5
										 14.84 576.5 L1.22 576.5 C0.54 576.5 0 575.96 0 575.28 C0 574.6 0.54 574.06 1.22 574.06 Z"
									class="st23"/>
						</g>
						<g id="shape751-99" v:mID="751" v:groupContext="shape" transform="translate(6.63611,-68.7517)">
							<title>Sheet.751</title>
							<ellipse cx="1.74635" cy="574.755" rx="1.74635" ry="1.74497" class="st23"/>
						</g>
						<g id="shape752-101" v:mID="752" v:groupContext="shape" transform="translate(6.63611,-25.302)">
							<title>Sheet.752</title>
							<path d="M1.22 574.06 L14.84 574.06 C15.53 574.06 16.07 574.6 16.07 575.28 C16.07 575.96 15.53 576.5
										 14.84 576.5 L1.22 576.5 C0.54 576.5 0 575.96 0 575.28 C0 574.6 0.54 574.06 1.22 574.06 Z"
									class="st23"/>
						</g>
						<g id="shape753-103" v:mID="753" v:groupContext="shape" transform="translate(11.5259,-62.9933)">
							<title>Sheet.753</title>
							<path d="M1.22 574.06 L23.92 574.06 C24.61 574.06 25.15 574.6 25.15 575.28 C25.15 575.96 24.61 576.5
										 23.92 576.5 L1.22 576.5 C0.54 576.5 0 575.96 0 575.28 C0 574.6 0.54 574.06 1.22 574.06 Z"
									class="st23"/>
						</g>
						<g id="shape754-105" v:mID="754" v:groupContext="shape" transform="translate(6.63611,-62.4698)">
							<title>Sheet.754</title>
							<ellipse cx="1.74635" cy="574.755" rx="1.74635" ry="1.74497" class="st23"/>
						</g>
						<g id="shape755-107" v:mID="755" v:groupContext="shape" transform="translate(6.63611,-19.0201)">
							<title>Sheet.755</title>
							<path d="M1.22 574.06 L23.92 574.06 C24.61 574.06 25.15 574.6 25.15 575.28 C25.15 575.96 24.61 576.5
										 23.92 576.5 L1.22 576.5 C0.54 576.5 0 575.96 0 575.28 C0 574.6 0.54 574.06 1.22 574.06 Z"
									class="st23"/>
						</g>
						<g id="shape756-109" v:mID="756" v:groupContext="shape" transform="translate(6.63611,-56.7114)">
							<title>Sheet.756</title>
							<path d="M1.22 574.06 L10.83 574.06 C11.51 574.06 12.05 574.6 12.05 575.28 C12.05 575.96 11.51 576.5
										 10.83 576.5 L1.22 576.5 C0.54 576.5 0 575.96 0 575.28 C0 574.6 0.54 574.06 1.22 574.06 Z"
									class="st23"/>
						</g>
						<g id="shape757-111" v:mID="757" v:groupContext="shape" transform="translate(6.63611,-12.7383)">
							<title>Sheet.757</title>
							<path d="M1.22 574.06 L10.83 574.06 C11.51 574.06 12.05 574.6 12.05 575.28 C12.05 575.96 11.51 576.5
										 10.83 576.5 L1.22 576.5 C0.54 576.5 0 575.96 0 575.28 C0 574.6 0.54 574.06 1.22 574.06 Z"
									class="st23"/>
						</g>
						<g id="shape758-113" v:mID="758" v:groupContext="shape" transform="translate(6.63611,-50.4295)">
							<title>Sheet.758</title>
							<path d="M1.22 574.06 L16.59 574.06 C17.27 574.06 17.81 574.6 17.81 575.28 C17.81 575.96 17.27 576.5
										 16.59 576.5 L1.22 576.5 C0.54 576.5 0 575.96 0 575.28 C0 574.6 0.54 574.06 1.22 574.06 Z"
									class="st23"/>
						</g>
						<g id="shape759-115" v:mID="759" v:groupContext="shape" transform="translate(11.5259,-44.1477)">
							<title>Sheet.759</title>
							<path d="M1.22 574.06 L25.85 574.06 C26.53 574.06 27.07 574.6 27.07 575.28 C27.07 575.96 26.53 576.5
										 25.85 576.5 L1.22 576.5 C0.54 576.5 0 575.96 0 575.28 C0 574.6 0.54 574.06 1.22 574.06 Z"
									class="st23"/>
						</g>
						<g id="shape760-117" v:mID="760" v:groupContext="shape" transform="translate(6.63611,-43.6242)">
							<title>Sheet.760</title>
							<ellipse cx="1.74635" cy="574.755" rx="1.74635" ry="1.74497" class="st23"/>
						</g>
						<g id="shape761-119" v:mID="761" v:groupContext="shape" transform="translate(11.5259,-37.8658)">
							<title>Sheet.761</title>
							<path d="M1.22 574.06 L16.59 574.06 C17.27 574.06 17.81 574.6 17.81 575.28 C17.81 575.96 17.27 576.5
										 16.59 576.5 L1.22 576.5 C0.54 576.5 0 575.96 0 575.28 C0 574.6 0.54 574.06 1.22 574.06 Z"
									class="st23"/>
						</g>
						<g id="shape762-121" v:mID="762" v:groupContext="shape" transform="translate(6.63611,-37.3423)">
							<title>Sheet.762</title>
							<ellipse cx="1.74635" cy="574.755" rx="1.74635" ry="1.74497" class="st23"/>
						</g>
						<g id="shape763-123" v:mID="763" v:groupContext="shape" transform="translate(11.5259,-31.5839)">
							<title>Sheet.763</title>
							<path d="M1.22 574.06 L22.35 574.06 C23.03 574.06 23.58 574.6 23.58 575.28 C23.58 575.96 23.03 576.5
										 22.35 576.5 L1.22 576.5 C0.54 576.5 0 575.96 0 575.28 C0 574.6 0.54 574.06 1.22 574.06 Z"
									class="st23"/>
						</g>
						<g id="shape764-125" v:mID="764" v:groupContext="shape" transform="translate(6.63611,-31.0604)">
							<title>Sheet.764</title>
							<ellipse cx="1.74635" cy="574.755" rx="1.74635" ry="1.74497" class="st23"/>
						</g>
						<g id="shape765-127" v:mID="765" v:groupContext="shape" transform="translate(4.71513,-124.591)">
							<title>Sheet.765</title>
							<path d="M1.75 573.01 L14.32 573.01 C15.28 573.01 16.07 573.8 16.07 574.76 C16.07 575.71 15.28 576.5
										 14.32 576.5 L1.75 576.5 C0.79 576.5 0 575.71 0 574.76 C0 573.8 0.79 573.01 1.75 573.01 Z"
									class="st24"/>
						</g>
						<g id="shape766-129" v:mID="766" v:groupContext="shape" transform="translate(37.0225,-123.893)">
							<title>Sheet.766</title>
							<ellipse cx="2.44488" cy="574.057" rx="2.44488" ry="2.44295" class="st24"/>
						</g>
					</g>
				</g>
				<g id="shape767-131" v:mID="767" v:groupContext="shape" transform="translate(15.0186,-145.53)">
					<title>Sheet.767</title>
					<ellipse cx="2.44488" cy="574.057" rx="2.44488" ry="2.44295" class="st25"/>
				</g>
				<g id="shape768-133" v:mID="768" v:groupContext="shape" transform="translate(22.1786,-145.53)">
					<title>Sheet.768</title>
					<ellipse cx="2.44488" cy="574.057" rx="2.44488" ry="2.44295" class="st26"/>
				</g>
				<g id="shape769-135" v:mID="769" v:groupContext="shape" transform="translate(7.85856,-145.53)">
					<title>Sheet.769</title>
					<ellipse cx="2.44488" cy="574.057" rx="2.44488" ry="2.44295" class="st27"/>
				</g>
				<g id="shape770-137" v:mID="770" v:groupContext="shape" transform="translate(50.644,-145.53)">
					<title>Sheet.770</title>
					<ellipse cx="2.44488" cy="574.057" rx="2.44488" ry="2.44295" class="st18"/>
				</g>
				<g id="shape771-139" v:mID="771" v:groupContext="shape" transform="translate(103.558,-145.53)">
					<title>Sheet.771</title>
					<ellipse cx="2.44488" cy="574.057" rx="2.44488" ry="2.44295" class="st18"/>
				</g>
				<g id="shape772-141" v:mID="772" v:groupContext="shape" transform="translate(117.878,-145.53)">
					<title>Sheet.772</title>
					<ellipse cx="2.44488" cy="574.057" rx="2.44488" ry="2.44295" class="st18"/>
				</g>
				<g id="shape773-143" v:mID="773" v:groupContext="shape" transform="translate(61.1221,-145.53)">
					<title>Sheet.773</title>
					<ellipse cx="2.44488" cy="574.057" rx="2.44488" ry="2.44295" class="st18"/>
				</g>
				<g id="shape774-145" v:mID="774" v:groupContext="shape" transform="translate(68.2821,-143.785)">
					<title>Sheet.774</title>
					<path d="M1.4 568.12 L21.13 568.12 C21.9 568.12 22.53 568.75 22.53 569.52 L22.53 575.1 C22.53 575.87 21.9 576.5
								 21.13 576.5 L1.4 576.5 C0.63 576.5 0 575.87 0 575.1 L0 569.52 C0 568.75 0.63 568.12 1.4 568.12 Z"
							class="st18"/>
				</g>
				<g id="shape775-147" v:mID="775" v:groupContext="shape" transform="translate(70.3777,-145.53)">
					<title>Sheet.775</title>
					<ellipse cx="2.44488" cy="574.057" rx="2.44488" ry="2.44295" class="st17"/>
				</g>
				<g id="shape776-149" v:mID="776" v:groupContext="shape" transform="translate(77.1885,-146.752)">
					<title>Sheet.776</title>
					<path d="M1.22 574.06 L8.73 574.06 C9.41 574.06 9.95 574.6 9.95 575.28 C9.95 575.96 9.41 576.5 8.73 576.5 L1.22
								 576.5 C0.54 576.5 0 575.96 0 575.28 C0 574.6 0.54 574.06 1.22 574.06 Z" class="st17"/>
				</g>
				<g id="shape777-151" v:mID="777" v:groupContext="shape" transform="translate(43.484,-145.53)">
					<title>Sheet.777</title>
					<ellipse cx="2.44488" cy="574.057" rx="2.44488" ry="2.44295" class="st18"/>
				</g>
				<g id="shape778-153" v:mID="778" v:groupContext="shape" transform="translate(96.3983,-145.53)">
					<title>Sheet.778</title>
					<ellipse cx="2.44488" cy="574.057" rx="2.44488" ry="2.44295" class="st18"/>
				</g>
				<g id="shape779-155" v:mID="779" v:groupContext="shape" transform="translate(110.718,-145.53)">
					<title>Sheet.779</title>
					<ellipse cx="2.44488" cy="574.057" rx="2.44488" ry="2.44295" class="st18"/>
				</g>
				<g id="shape780-157" v:mID="780" v:groupContext="shape" transform="translate(227.374,-145.53)">
					<title>Sheet.780</title>
					<ellipse cx="2.44488" cy="574.057" rx="2.44488" ry="2.44295" class="st18"/>
				</g>
				<g id="shape781-159" v:mID="781" v:groupContext="shape" transform="translate(241.694,-145.53)">
					<title>Sheet.781</title>
					<ellipse cx="2.44488" cy="574.057" rx="2.44488" ry="2.44295" class="st18"/>
				</g>
				<g id="shape782-161" v:mID="782" v:groupContext="shape" transform="translate(220.214,-145.53)">
					<title>Sheet.782</title>
					<ellipse cx="2.44488" cy="574.057" rx="2.44488" ry="2.44295" class="st18"/>
				</g>
				<g id="shape783-163" v:mID="783" v:groupContext="shape" transform="translate(234.534,-145.53)">
					<title>Sheet.783</title>
					<ellipse cx="2.44488" cy="574.057" rx="2.44488" ry="2.44295" class="st18"/>
				</g>
			</g>
		</g>
		<g id="shape824-165" v:mID="824" v:groupContext="shape" transform="translate(150.626,-348.719)">
			<title>Sheet.824</title>
			<desc>class F { int fact(int n) { int ans = 1; if (n &#62; 0) { ans=n*f...</desc>
			<v:textBlock v:margins="rect(4,4,4,4)"/>
			<v:textRect cx="46.8747" cy="519.825" width="93.75" height="113.351"/>
			<rect x="0" y="463.149" width="93.7494" height="113.351" class="st28"/>
			<text x="4" y="479.32" class="st29" v:langID="1033"><v:paragraph/><v:tabList/>class<tspan class="st30"> </tspan><tspan
						class="st30">F {<v:newlineChar/></tspan><tspan x="4" dy="1.2em" class="st30">    </tspan>int<tspan
						class="st30"> </tspan><tspan class="st30">fact(</tspan>int<tspan class="st30"> </tspan><tspan class="st30">n) {<v:newlineChar/></tspan><tspan
						x="4" dy="1.2em" class="st30">        </tspan>int<tspan class="st30"> </tspan><tspan class="st30">ans = 1;<v:newlineChar/></tspan><tspan
						x="4" dy="1.2em" class="st30">        </tspan>if<tspan class="st30"> </tspan><tspan class="st30">(n &#62; 0) {<v:newlineChar/></tspan><tspan
						x="4" dy="1.2em" class="st30">            </tspan><tspan class="st30">ans=n*fact(n</tspan><tspan
						class="st30">-</tspan><tspan class="st30">1);<v:newlineChar/></tspan><tspan x="4" dy="1.2em" class="st30">        </tspan><tspan
						class="st30">}<v:newlineChar/></tspan><tspan x="4" dy="1.2em" class="st30">        </tspan>return<tspan
						class="st30"> </tspan><tspan class="st30">ans;<v:newlineChar/></tspan><tspan x="4" dy="1.2em" class="st30">    </tspan><tspan
						class="st30">}<v:newlineChar/></tspan><tspan x="4" dy="1.2em" class="st30">}</tspan></text>		</g>
		<g id="shape366-193" v:mID="366" v:groupContext="shape" v:layerMember="0" transform="translate(139.849,-360.865)">
			<title>Dynamic connector</title>
			<path d="M0 576.5 L0 793.32 L71.78 793.32" class="st8"/>
		</g>
		<g id="shape502-198" v:mID="502" v:groupContext="shape" transform="translate(426.625,-318.554)">
			<title>Rectangle.502</title>
			<desc>Application Memory</desc>
			<v:userDefs>
				<v:ud v:nameU="visVersion" v:val="VT0(15):26"/>
			</v:userDefs>
			<v:textBlock v:margins="rect(4,4,4,4)" v:verticalAlign="0"/>
			<v:textRect cx="120.656" cy="483.78" width="241.32" height="185.44"/>
			<path d="M0 576.5 L241.31 576.5 L241.31 391.06 L0 391.06 L0 576.5 Z" class="st31"/>
			<text x="62.25" y="411.26" class="st14" v:langID="1033"><v:paragraph v:horizAlign="1"/><v:tabList/>Application Memory</text>		</g>
		<g id="shape356-201" v:mID="356" v:groupContext="shape" transform="translate(425.5,-222.507)">
			<title>Sheet.356</title>
			<desc>Probe</desc>
			<v:textBlock v:margins="rect(4,4,4,4)" v:verticalAlign="0"/>
			<v:textRect cx="120.656" cy="530.085" width="241.32" height="92.8296"/>
			<rect x="0" y="483.67" width="241.312" height="92.8296" rx="4.5" ry="4.5" class="st2"/>
			<text x="41.22" y="503.87" class="st32" v:langID="1033"><v:paragraph/><v:tabList/>Probe</text>		</g>
		<g id="shape370-204" v:mID="370" v:groupContext="shape" transform="translate(479.5,-236.194)">
			<title>Sheet.370</title>
			<desc>Instrument Scheduler</desc>
			<v:textBlock v:margins="rect(4,4,4,4)"/>
			<v:textRect cx="39.6" cy="551.3" width="79.21" height="50.4"/>
			<rect x="0" y="526.1" width="79.2" height="50.4" class="st5"/>
			<text x="14.87" y="547.1" class="st6" v:langID="1033"><v:paragraph v:horizAlign="1"/><v:tabList/>Instrument<v:newlineChar/><tspan
						x="16.95" dy="1.2em" class="st7">Scheduler</tspan></text>		</g>
		<g id="shape832-208" v:mID="832" v:groupContext="shape" transform="translate(428.124,-291.769)">
			<title>Sheet.832</title>
			<desc>S++</desc>
			<v:textBlock v:margins="rect(4,4,4,4)"/>
			<v:textRect cx="19.3132" cy="570.956" width="38.63" height="11.0884"/>
			<rect x="0" y="565.412" width="38.6264" height="11.0884" rx="4.5" ry="4.5" class="st10"/>
			<text x="4.21" y="579.96" class="st33" v:langID="1033"><v:paragraph v:horizAlign="1"/><v:tabList/>S<tspan class="st16">++</tspan></text>		</g>
		<g id="group840-212" transform="translate(448.281,-330.507)" v:mID="840" v:groupContext="group">
			<title>Sheet.840</title>
			<g id="shape383-213" v:mID="383" v:groupContext="shape" transform="translate(-3.59712E-14,-15.4247)">
				<title>Sheet.383</title>
				<desc>iconst istore_2 iload_1 aload_0 iload_1 iconst_1 isub ireturn</desc>
				<v:textBlock v:margins="rect(4,4,4,4)"/>
				<v:textRect cx="33.75" cy="517.795" width="67.5" height="117.409"/>
				<rect x="0" y="459.091" width="67.5" height="117.409" class="st34"/>
				<text x="4" y="471" class="st35" v:langID="1033"><v:paragraph/><v:tabList/>iconst<v:newlineChar/><tspan x="4"
							dy="1.2em" class="st7">istore_2<v:newlineChar/></tspan><tspan x="4" dy="1.2em" class="st7">iload_1<v:newlineChar/></tspan><tspan
							x="4" dy="1.2em" class="st7">aload_0<v:newlineChar/></tspan><tspan x="4" dy="1.2em" class="st7">iload_1<v:newlineChar/></tspan><tspan
							x="4" dy="1.2em" class="st7">iconst_1<v:newlineChar/></tspan><tspan x="4" dy="1.2em" class="st7">isub<v:newlineChar/></tspan><tspan
							x="4" dy="1.2em" class="st7">ireturn</tspan></text>			</g>
			<g id="group386-223" transform="translate(45,-70.2247)" v:mID="386" v:groupContext="group">
				<title>Sheet.386</title>
				<g id="shape387-224" v:mID="387" v:groupContext="shape">
					<title>Sheet.387</title>
					<path d="M28.68 548.48 C27.93 547.95 27.07 547.7 26.21 547.7 C24.85 547.7 23.48 548.32 22.54 549.41 L9.32 564.86
								 C8.94 565.31 9.04 565.89 9.39 566.26 L0 576.5 L0.02 576.5 C5.72 576.5 11.18 574.58 15.38 571.17
								 C15.39 571.16 15.4 571.15 15.41 571.14 C16.87 569.95 17.78 568.33 18.2 566.6 L18.78 566.6 C19.39
								 566.6 19.98 566.33 20.38 565.86 L29.5 555.2 C31.23 553.18 30.89 550.06 28.68 548.48 ZM13.67 569.08
								 C11.77 570.63 9.58 571.82 7.22 572.62 L12.74 566.6 L15.41 566.6 C15.06 567.57 14.47 568.43 13.67
								 569.08 ZM27.45 553.45 L18.5 563.9 L13.7 563.9 L24.59 551.17 C25 550.69 25.62 550.4 26.21 550.4 C26.55
								 550.4 26.85 550.49 27.11 550.68 C27.7 551.09 27.85 551.67 27.89 551.98 C27.95 552.52 27.8 553.04
								 27.45 553.45 ZM27.45 573.8 L22.95 573.8 C22.7 573.8 22.5 574 22.5 574.25 L22.5 576.05 C22.5 576.3
								 22.7 576.5 22.95 576.5 L27.45 576.5 C27.7 576.5 27.9 576.3 27.9 576.05 L27.9 574.25 C27.9 574 27.7
								 573.8 27.45 573.8 ZM19.35 573.8 L14.85 573.8 C14.6 573.8 14.4 574 14.4 574.25 L14.4 576.05 C14.4
								 576.3 14.6 576.5 14.85 576.5 L19.35 576.5 C19.6 576.5 19.8 576.3 19.8 576.05 L19.8 574.25 C19.8
								 574 19.6 573.8 19.35 573.8 ZM35.55 573.8 L31.05 573.8 C30.8 573.8 30.6 574 30.6 574.25 L30.6 576.05
								 C30.6 576.3 30.8 576.5 31.05 576.5 L35.55 576.5 C35.8 576.5 36 576.3 36 576.05 L36 574.25 C36 574
								 35.8 573.8 35.55 573.8 Z" class="st36"/>
				</g>
			</g>
			<g id="group505-226" transform="translate(-323.324,118.989) rotate(-45)" v:mID="505" v:groupContext="group">
				<title>Sheet.505</title>
				<g id="shape506-227" v:mID="506" v:groupContext="shape">
					<title>Sheet.506</title>
					<path d="M13.51 562.61 L13.89 562.99 C14.21 563.31 14.21 563.83 13.89 564.14 L3.71 574.33 L7.88 574.33 C8.33
								 574.33 8.7 574.69 8.7 575.14 L8.7 575.68 C8.7 576.13 8.33 576.5 7.88 576.5 L0.82 576.5 C0.37 576.5
								 0 576.13 0 575.68 L0 568.62 C0 568.17 0.37 567.8 0.82 567.8 L1.36 567.8 C1.81 567.8 2.17 568.17
								 2.17 568.62 L2.17 572.79 L12.36 562.61 C12.67 562.29 13.19 562.29 13.51 562.61 ZM29.62 546.06 L22.56
								 546.06 C22.11 546.06 21.74 546.43 21.74 546.88 L21.74 547.42 C21.74 547.87 22.11 548.24 22.56 548.24
								 L26.73 548.24 L16.55 558.42 C16.23 558.74 16.23 559.25 16.55 559.57 L16.93 559.95 C17.25 560.27
								 17.76 560.27 18.08 559.95 L28.26 549.77 L28.26 553.94 C28.26 554.39 28.63 554.76 29.08 554.76 L29.62
								 554.76 C30.07 554.76 30.44 554.39 30.44 553.94 L30.44 546.88 C30.44 546.43 30.07 546.06 29.62 546.06
								 Z" class="st37"/>
				</g>
			</g>
			<g id="shape507-229" v:mID="507" v:groupContext="shape" transform="translate(130.5,0)">
				<title>Sheet.507</title>
				<desc>iconst istore_2 iload_1 aload_0 iload_1 iconst_1 isub ireturn</desc>
				<v:textBlock v:margins="rect(4,4,4,4)"/>
				<v:textRect cx="33.75" cy="505.7" width="67.5" height="141.6"/>
				<rect x="0" y="434.9" width="67.5" height="141.6" class="st34"/>
				<text x="4" y="444.5" class="st35" v:langID="1033"><v:paragraph/><v:tabList/>iconst<v:newlineChar/><tspan x="4"
							dy="1.2em" class="st7">istore_2<v:newlineChar/></tspan><tspan x="4" dy="1.2em" class="st7">iload_1<v:newlineChar/></tspan><tspan
							x="4" dy="1.2em" class="st7">aload_0<v:newlineChar/><v:newlineChar/><v:newlineChar/></tspan><tspan
							x="4" dy="3.6em" class="st7">iload_1<v:newlineChar/></tspan><tspan x="4" dy="1.2em" class="st7">iconst_1<v:newlineChar/></tspan><tspan
							x="4" dy="1.2em" class="st7">isub<v:newlineChar/></tspan><tspan x="4" dy="1.2em" class="st7">ireturn</tspan></text>			</g>
			<g id="group518-239" transform="translate(135,-61.0497)" v:mID="518" v:groupContext="group">
				<title>Sheet.518</title>
				<g id="shape519-240" v:mID="519" v:groupContext="shape">
					<title>Sheet.519</title>
					<path d="M4.92 557.71 L4.34 557.12 a0.40625 0.40625 -180 0 0 -0.586523 0.00507812 C1.33 559.74 0 563.14 0 566.75
								 C0 570.36 1.33 573.76 3.75 576.37 a0.40625 0.40625 -180 0 0 0.586523 0.00457031 L4.92 575.79 a0.412852
								 0.412852 -180 0 0 0.00355469 -0.570781 C2.79 572.92 1.62 569.92 1.62 566.75 C1.62 563.58 2.79 560.58
								 4.92 558.28 a0.412852 0.412852 -180 0 0 -0.00355469 -0.570781 ZM9.18 561.21 L8.6 560.63 a0.40625
								 0.40625 -180 0 0 -0.591094 0.00761719 A9.19648 9.19648 -180 0 0 8.01 572.86 a0.40625 0.40625 -180
								 0 0 0.591094 0.00761719 L9.18 572.28 a0.416914 0.416914 -180 0 0 0.00710937 -0.569766 A7.52426 7.52426
								 0 0 1 9.19 561.78 a0.416914 0.416914 -180 0 0 -0.00710937 -0.565703 L9.18 561.21 ZM25.5 557.13 a0.40625
								 0.40625 -180 0 0 -0.587031 -0.00507812 L24.33 557.71 a0.412852 0.412852 -180 0 0 -0.00355469 0.570781
								 C26.46 560.58 27.62 563.58 27.62 566.75 C27.62 569.92 26.46 572.92 24.33 575.22 a0.412852 0.412852
								 -180 0 0 0.00355469 0.570781 L24.91 576.38 a0.40625 0.40625 -180 0 0 0.587031 -0.00457031 C27.92
								 573.76 29.25 570.36 29.25 566.75 C29.25 563.14 27.92 559.74 25.5 557.13 ZM14.62 563.5 A3.25 3.25
								 -180 1 0 17.87 566.75 A3.25 3.25 -180 0 0 14.62 563.5 ZM14.62 568.37 A1.625 1.625 0 1 1 16.25 566.75
								 A1.625 1.625 0 0 1 14.62 568.37 ZM20.65 560.63 L20.07 561.21 a0.416914 0.416914 -180 0 0 -0.00710937
								 0.569766 A7.52426 7.52426 0 0 1 20.06 571.72 a0.416914 0.416914 -180 0 0 0.00710937 0.569766 L20.65
								 572.87 a0.40625 0.40625 -180 0 0 0.591094 -0.00761719 A9.19648 9.19648 -180 0 0 21.24 560.64 a0.40625
								 0.40625 -180 0 0 -0.591094 -0.00964844 Z" class="st38"/>
				</g>
			</g>
			<g id="shape523-242" v:mID="523" v:groupContext="shape" v:layerMember="0" transform="translate(91.65,-61.8)">
				<title>Dynamic connector.523</title>
				<path d="M0 567.5 L29.31 567.5" class="st39"/>
			</g>
		</g>
		<g id="shape513-247" v:mID="513" v:groupContext="shape" v:layerMember="0" transform="translate(510.128,-286.594)">
			<title>Dynamic connector.513</title>
			<path d="M8.97 576.5 L9.02 470.4" class="st40"/>
		</g>
		<g id="shape514-253" v:mID="514" v:groupContext="shape" v:layerMember="0" transform="translate(612.812,-401.466)">
			<title>Dynamic connector.514</title>
			<path d="M0 576.5 L71.44 576.5 L71.44 716.47 L47.38 716.47" class="st8"/>
		</g>
		<g id="shape372-258" v:mID="372" v:groupContext="shape" v:layerMember="0" transform="translate(369.665,-169.144)">
			<title>Dynamic connector.372</title>
			<path d="M0 576.5 L0 484.25 L100.3 484.25" class="st8"/>
		</g>
		<g id="shape828-263" v:mID="828" v:groupContext="shape" transform="translate(149.918,-344.644)">
			<title>Rectangle.828</title>
			<v:userDefs>
				<v:ud v:nameU="visVersion" v:val="VT0(15):26"/>
			</v:userDefs>
			<rect x="0" y="456.692" width="0.509652" height="119.808" class="st42"/>
		</g>
		<g id="shape522-265" v:mID="522" v:groupContext="shape" v:layerMember="0" transform="translate(330.065,-69.6941)">
			<title>Dynamic connector.522</title>
			<path d="M0 576.5 L-228.55 576.5 L-228.55 315.36" class="st8"/>
		</g>
		<g id="group313-270" transform="translate(125.554,-371.246)" v:mID="313" v:groupContext="group">
			<title>Sheet.313</title>
			<g id="shape314-271" v:mID="314" v:groupContext="shape">
				<title>Sheet.314</title>
				<ellipse cx="13.8037" cy="563.061" rx="13.8037" ry="13.4391" class="st43"/>
			</g>
			<g id="shape315-273" v:mID="315" v:groupContext="shape" transform="translate(5.09633,-2.11603)">
				<title>Sheet.315</title>
				<path d="M13.65 554.39 L13.65 560.26 L7.66 563.51 L14.85 569.18 L4.71 576.5 L8.9 569.87 L0.05 563.3 L0 563.23 L13.65
							 554.39 Z" class="st44"/>
			</g>
		</g>
		<g id="group360-275" transform="translate(116.116,-349.79)" v:mID="360" v:groupContext="group">
			<title>Sheet.360</title>
			<g id="shape361-276" v:mID="361" v:groupContext="shape">
				<title>Sheet.361</title>
				<path d="M57.98 571.45 L44.14 557.62 C43.88 557.36 43.54 557.22 43.17 557.22 L41.67 557.22 C45.26 553.06 47.43 547.65
							 47.43 541.73 C47.43 528.64 36.82 518.03 23.72 518.03 C10.62 518.03 0 528.64 0 541.73 C0 554.82 10.62
							 565.43 23.72 565.43 C29.65 565.43 35.06 563.25 39.22 559.66 L39.22 561.16 C39.22 561.53 39.37 561.87
							 39.62 562.13 L53.47 575.96 C54 576.5 54.87 576.5 55.41 575.96 L57.98 573.39 C58.52 572.85 58.52 571.99
							 57.98 571.45 ZM23.72 559.96 C13.64 559.96 5.47 551.8 5.47 541.73 C5.47 531.65 13.64 523.5 23.72 523.5
							 C33.8 523.5 41.96 531.65 41.96 541.73 C41.96 551.8 33.8 559.96 23.72 559.96 Z" class="st45"/>
			</g>
		</g>
		<g id="shape844-278" v:mID="844" v:groupContext="shape" v:layerMember="0" transform="translate(611.049,-236.194)">
			<title>Dynamic connector.844</title>
			<path d="M0 576.5 L0 692.95 L-44.95 692.95" class="st8"/>
		</g>
		<g id="shape843-283" v:mID="843" v:groupContext="shape" transform="translate(571.449,-236.194)">
			<title>Sheet.843</title>
			<desc>SkyWalking Agent</desc>
			<v:textBlock v:margins="rect(4,4,4,4)"/>
			<v:textRect cx="39.6" cy="551.3" width="79.21" height="50.4"/>
			<path d="M0 576.5 L79.2 576.5 L79.2 526.1 L0 526.1 L0 576.5 Z" class="st13"/>
			<text x="14.16" y="547.1" class="st6" v:langID="1033"><v:paragraph v:horizAlign="1"/><v:tabList/>SkyWalking <tspan
						x="27.04" dy="1.2em" class="st7">Agent</tspan></text>		</g>
	</g>
</svg>
