<svg id="Layer_1" data-name="Layer 1" xmlns="http://www.w3.org/2000/svg" viewBox="0 0 990.5 482"><defs><style>.cls-1,.cls-12{fill:#e6ebed;}.cls-1{stroke:#8a8ea3;}.cls-1,.cls-10,.cls-12,.cls-2,.cls-5{stroke-linecap:square;stroke-miterlimit:6;}.cls-1,.cls-12,.cls-5{stroke-width:0.5px;}.cls-10,.cls-2,.cls-7{fill:#f2f2f2;}.cls-10,.cls-12,.cls-2,.cls-3,.cls-5{stroke:#141d22;}.cls-2{stroke-dasharray:7 5 0.02 5 0.02 5;}.cls-10,.cls-2,.cls-4{fill-rule:evenodd;}.cls-13,.cls-3,.cls-8{fill:none;}.cls-3{stroke-linecap:round;stroke-linejoin:round;stroke-width:2px;stroke-dasharray:2 4;}.cls-11,.cls-4{fill:#141d22;}.cls-5{fill:#182d34;}.cls-6{isolation:isolate;}.cls-9{fill:#e1483b;}.cls-10{stroke-dasharray:7 5;}.cls-13{stroke:#000;stroke-miterlimit:10;}</style></defs><g id="shape104-24"><rect class="cls-1" x="0.25" y="0.25" width="990" height="481.5"/></g><g id="shape136-1"><path class="cls-2" d="M71.26,266.12h209a20.37,20.37,0,0,0,20.38-20.38V95.89A20.38,20.38,0,0,0,280.23,75.5h-209A20.39,20.39,0,0,0,50.87,95.89V245.74A20.38,20.38,0,0,0,71.26,266.12Z"/></g><g id="shape135-3"><path class="cls-3" d="M137.27,169.69H187"/></g><g id="group92-6"><g id="shape93-7"><path class="cls-4" d="M141.66,178.47h-4.38V152.15a5.88,5.88,0,0,0-5.86-5.86H96.32a5.86,5.86,0,0,0-5.84,5.86v26.32h-4.4a1.47,1.47,0,0,0-1.46,1.46v4.38a8.79,8.79,0,0,0,8.78,8.78h40.94a8.79,8.79,0,0,0,8.78-8.78v-4.38A1.47,1.47,0,0,0,141.66,178.47Zm-46.8-26.32a1.49,1.49,0,0,1,1.46-1.48h35.1a1.49,1.49,0,0,1,1.46,1.48v26.32h-38Zm43.88,32.16a4.41,4.41,0,0,1-4.4,4.4H93.4a4.41,4.41,0,0,1-4.4-4.4v-1.46h16.54a2.88,2.88,0,0,0,2.48,1.46h11.7a2.88,2.88,0,0,0,2.48-1.46h16.54ZM110,170.21l1-1a1.47,1.47,0,0,0,0-2.06l-3.28-3.26,3.28-3.28a1.47,1.47,0,0,0,0-2.06l-1-1a1.47,1.47,0,0,0-2.06,0l-5.34,5.34a1.44,1.44,0,0,0,0,2.06l5.34,5.34A1.47,1.47,0,0,0,110,170.21Zm6.7-1,1,1a1.47,1.47,0,0,0,2.06,0l5.34-5.34a1.44,1.44,0,0,0,0-2.06l-5.34-5.34a1.47,1.47,0,0,0-2.06,0l-1,1a1.47,1.47,0,0,0,0,2.06l3.28,3.28-3.28,3.26A1.47,1.47,0,0,0,116.7,169.17Z"/></g></g><g id="shape120-9"><rect class="cls-5" x="187" y="134.59" width="85.5" height="72.45" rx="11.34"/><g class="cls-6"><path class="cls-7" d="M212.25,177.7a3.22,3.22,0,0,0-2.05.67,4.82,4.82,0,0,0-1.39,1.84,10.51,10.51,0,0,0-.79,2.66,18.77,18.77,0,0,0-.26,3.15,15.18,15.18,0,0,0,.57,4.43,6.54,6.54,0,0,0,1.61,2.87,3.39,3.39,0,0,0,2.44,1,5.53,5.53,0,0,0,1.6-.22,7.58,7.58,0,0,0,1.39-.53v2a5.62,5.62,0,0,1-1.47.57,8.07,8.07,0,0,1-1.76.18,5.36,5.36,0,0,1-3.53-1.23,7.85,7.85,0,0,1-2.3-3.53,17,17,0,0,1-.8-5.53,18.65,18.65,0,0,1,.4-4,11.18,11.18,0,0,1,1.23-3.28,6.42,6.42,0,0,1,2.09-2.23,5.4,5.4,0,0,1,3-.79,6.9,6.9,0,0,1,1.89.25,7.63,7.63,0,0,1,1.75.73l-.78,1.85a5.58,5.58,0,0,0-1.33-.63A4.69,4.69,0,0,0,212.25,177.7Z"/><path class="cls-7" d="M220.42,196h-2.1V174.74h2.1Z"/><path class="cls-7" d="M225.17,175.37a1.06,1.06,0,0,1,.93.41,1.93,1.93,0,0,1,.3,1.14,1.8,1.8,0,0,1-.32,1.12,1.08,1.08,0,0,1-.91.41,1.16,1.16,0,0,1-.93-.41,1.68,1.68,0,0,1-.34-1.12,1.81,1.81,0,0,1,.32-1.15A1.19,1.19,0,0,1,225.17,175.37Zm1,5.64v15h-2.09V181Z"/><path class="cls-7" d="M234,180.76a3.64,3.64,0,0,1,2.52.89A5.39,5.39,0,0,1,238,184a11,11,0,0,1,.48,3.35v1.49h-7.15a8.56,8.56,0,0,0,.87,4.21,2.75,2.75,0,0,0,2.53,1.41,5.08,5.08,0,0,0,1.59-.25,6.13,6.13,0,0,0,1.61-.79v1.89a6.44,6.44,0,0,1-1.62.71,7.07,7.07,0,0,1-1.81.23,4.45,4.45,0,0,1-3-1,5.68,5.68,0,0,1-1.69-2.75,13.68,13.68,0,0,1-.53-3.95,14.62,14.62,0,0,1,.54-4.26,5.45,5.45,0,0,1,1.59-2.66A3.85,3.85,0,0,1,234,180.76Zm0,1.72a2.05,2.05,0,0,0-1.86,1.16,8,8,0,0,0-.78,3.56h5.15a10.19,10.19,0,0,0-.26-2.35,4.38,4.38,0,0,0-.82-1.72A1.81,1.81,0,0,0,234,182.48Z"/><path class="cls-7" d="M246.84,180.73a3.14,3.14,0,0,1,2.69,1.25,6.44,6.44,0,0,1,.92,3.81V196h-2.11v-9.8a6.2,6.2,0,0,0-.47-2.73,1.56,1.56,0,0,0-1.48-.9,2.27,2.27,0,0,0-2.16,1.31,9.59,9.59,0,0,0-.69,4.22V196h-2.1V181h1.68l.23,2.17h.14a4.83,4.83,0,0,1,.8-1.3,3.62,3.62,0,0,1,1.14-.85A3.3,3.3,0,0,1,246.84,180.73Z"/><path class="cls-7" d="M257.58,194.43a3.23,3.23,0,0,0,.69-.07,3.11,3.11,0,0,0,.65-.22v1.73a4.22,4.22,0,0,1-.91.3,4.69,4.69,0,0,1-1.1.12,2.66,2.66,0,0,1-1.59-.44,2.55,2.55,0,0,1-.92-1.3,7.1,7.1,0,0,1-.29-2.18v-9.6h-1.39v-1.15l1.49-.56.56-3.46h1.45V181h2.54v1.76h-2.54v9.35a4.1,4.1,0,0,0,.28,1.74A1.08,1.08,0,0,0,257.58,194.43Z"/></g></g><g id="shape122-12"><rect class="cls-8" x="187" y="150.36" width="85.5" height="28" rx="9"/><g class="cls-6"><g class="cls-6"><path class="cls-7" d="M218.26,145.24l0,5.61-5.56,3.09,6.68,5.41-9.4,7,3.89-6.33-8.22-6.25,0-.07Z"/></g><g class="cls-6"><path class="cls-9" d="M226.3,154.57h3.23v5.25h5.21v3.26h-5.21v5.25H226.3v-5.25h-5.2v-3.26h5.2Z"/><path class="cls-9" d="M242.7,154.57h3.24v5.25h5.2v3.26h-5.2v5.25H242.7v-5.25h-5.2v-3.26h5.2Z"/></g></g></g><g id="shape173-16"><rect class="cls-8" x="71.12" y="192.5" width="85.5" height="42.81"/><g class="cls-6"><path d="M91.38,219.91V205.63h1.55v14.28Z"/><path d="M103.61,212.6a12.65,12.65,0,0,1-.56,4,4.93,4.93,0,0,1-1.66,2.45,4.42,4.42,0,0,1-2.74.82h-2.8V205.63h2.92a4.38,4.38,0,0,1,2.67.8,4.78,4.78,0,0,1,1.62,2.34A11.71,11.71,0,0,1,103.61,212.6Zm-1.62.08a11.52,11.52,0,0,0-.37-3.13,3.84,3.84,0,0,0-1.08-1.89,2.64,2.64,0,0,0-1.83-.64H97.4v11.5h1.2a2.73,2.73,0,0,0,2.57-1.47A9.29,9.29,0,0,0,102,212.68Z"/><path d="M111.69,219.91h-5.61V205.63h5.61V207h-4.06v4.74h3.82v1.39h-3.82v5.35h4.06Z"/><path d="M119.64,205.59,114.42,220H113l5.26-14.37Z"/><path d="M125.74,206.83a2.32,2.32,0,0,0-1.46.47,3.5,3.5,0,0,0-1,1.32,7.3,7.3,0,0,0-.57,1.9,13.67,13.67,0,0,0-.18,2.25,10.94,10.94,0,0,0,.41,3.17,4.69,4.69,0,0,0,1.14,2,2.44,2.44,0,0,0,1.75.72,4.26,4.26,0,0,0,1.15-.15,6.67,6.67,0,0,0,1-.39v1.41a3.83,3.83,0,0,1-1,.41,6.25,6.25,0,0,1-1.26.13,3.87,3.87,0,0,1-2.52-.88,5.55,5.55,0,0,1-1.64-2.53,11.8,11.8,0,0,1-.58-3.95,13.53,13.53,0,0,1,.29-2.84,7.85,7.85,0,0,1,.88-2.34,4.48,4.48,0,0,1,1.49-1.59,3.85,3.85,0,0,1,2.11-.57,5.05,5.05,0,0,1,1.35.18,5.62,5.62,0,0,1,1.24.52l-.55,1.32a3.89,3.89,0,0,0-1-.44A3.28,3.28,0,0,0,125.74,206.83Z"/><path d="M130.24,219.91V205.63h1.55V218.5h4v1.41Z"/><path d="M137.59,219.91V205.63h1.55v14.28Z"/></g></g><g id="shape174-19"><path class="cls-2" d="M71.26,427.75h209a20.38,20.38,0,0,0,20.38-20.38V344.63a20.38,20.38,0,0,0-20.38-20.38h-209a20.39,20.39,0,0,0-20.39,20.38v62.74A20.39,20.39,0,0,0,71.26,427.75Z"/></g><g id="group90-21"><g id="shape91-22"><path class="cls-4" d="M212,370.82A12.94,12.94,0,1,0,199,357.88,12.94,12.94,0,0,0,212,370.82Zm0-18.12a5.18,5.18,0,1,1-5.18,5.18A5.19,5.19,0,0,1,212,352.7Zm-72.46,18.12a12.94,12.94,0,1,0-12.94-12.94A12.92,12.92,0,0,0,139.52,370.82Zm0-18.12a5.18,5.18,0,1,1-5.18,5.18A5.19,5.19,0,0,1,139.52,352.7Zm64.12,34.12c-4.46-6.6-13.06-9.06-20.68-6.74a24.74,24.74,0,0,1-14.46,0c-7.62-2.32-16.22.12-20.66,6.74a18.52,18.52,0,0,0-3.18,10.4v7.24a7.77,7.77,0,0,0,7.78,7.76H199a7.75,7.75,0,0,0,7.76-7.76v-7.24A18.17,18.17,0,0,0,203.64,386.82ZM199,404.46H152.46v-7.24A10.9,10.9,0,0,1,163,386.34a32.37,32.37,0,0,0,25.42,0A10.88,10.88,0,0,1,199,397.22ZM213.92,376H210a13.71,13.71,0,0,0-7.58,2.3,23.45,23.45,0,0,1,5.56,5.86,6.14,6.14,0,0,1,2-.4h3.88a5.84,5.84,0,0,1,5.82,5.82,3.88,3.88,0,0,0,7.76,0A13.58,13.58,0,0,0,213.92,376Zm-38.18,0a18.11,18.11,0,1,0-18.1-18.12A18.1,18.1,0,0,0,175.74,376Zm0-28.46a10.35,10.35,0,1,1-10.34,10.34A10.36,10.36,0,0,1,175.74,347.54ZM149,378.3a13.71,13.71,0,0,0-7.58-2.3h-3.88A13.61,13.61,0,0,0,124,389.58a3.88,3.88,0,1,0,7.76,0,5.84,5.84,0,0,1,5.82-5.82h3.88a5.93,5.93,0,0,1,2,.4A23.9,23.9,0,0,1,149,378.3Z"/></g></g><g id="shape50-26"><path class="cls-10" d="M384,262.25H593a20.38,20.38,0,0,0,20.38-20.38V92A20.38,20.38,0,0,0,593,71.63H384A20.39,20.39,0,0,0,363.62,92V241.87A20.39,20.39,0,0,0,384,262.25Z"/></g><g id="shape54-28"><path class="cls-9" d="M404.93,55.19a6.61,6.61,0,0,1-.65,3,4.89,4.89,0,0,1-1.82,2,5.13,5.13,0,0,1-2.75.72,12.38,12.38,0,0,1-1.51-.09,8.3,8.3,0,0,1-1.37-.28,7.72,7.72,0,0,1-1.24-.47V57.82a8.09,8.09,0,0,0,2,.79,8,8,0,0,0,2,.28,2.87,2.87,0,0,0,1.68-.48,3,3,0,0,0,1-1.26,4,4,0,0,0,.37-1.75,4.28,4.28,0,0,0-.3-1.7,3.31,3.31,0,0,0-1-1.25,10.75,10.75,0,0,0-1.84-1.17,13.14,13.14,0,0,1-1.59-1,6.34,6.34,0,0,1-1.22-1.14,5,5,0,0,1-.78-1.5,6.88,6.88,0,0,1-.27-2,5.4,5.4,0,0,1,.62-2.75A4.58,4.58,0,0,1,398.16,41a5.22,5.22,0,0,1,2.64-.65,8.54,8.54,0,0,1,2.17.28,9.08,9.08,0,0,1,1.78.68l-.71,2a7.82,7.82,0,0,0-1.64-.68,5.89,5.89,0,0,0-1.56-.23,3,3,0,0,0-1.56.4,2.7,2.7,0,0,0-1,1.09,3.52,3.52,0,0,0-.35,1.6,4.14,4.14,0,0,0,.31,1.74,3.18,3.18,0,0,0,1,1.22,14.71,14.71,0,0,0,1.82,1.15,9.7,9.7,0,0,1,2.16,1.47,5,5,0,0,1,1.29,1.78A6,6,0,0,1,404.93,55.19Z"/><path class="cls-9" d="M412,45.39a3.64,3.64,0,0,1,2.52.89A5.22,5.22,0,0,1,416,48.67a11,11,0,0,1,.49,3.35v1.49h-7.15a8.44,8.44,0,0,0,.86,4.21,2.78,2.78,0,0,0,2.54,1.41,5.38,5.38,0,0,0,1.59-.24,6.69,6.69,0,0,0,1.61-.8V60a6,6,0,0,1-1.63.71,6.53,6.53,0,0,1-1.8.23,4.49,4.49,0,0,1-3-1,5.83,5.83,0,0,1-1.69-2.75,13.67,13.67,0,0,1-.52-3.94,15,15,0,0,1,.53-4.27,5.61,5.61,0,0,1,1.59-2.66A3.87,3.87,0,0,1,412,45.39Zm0,1.72a2.08,2.08,0,0,0-1.86,1.16,8.28,8.28,0,0,0-.78,3.56h5.16a9.51,9.51,0,0,0-.27-2.34,4.23,4.23,0,0,0-.82-1.73A1.79,1.79,0,0,0,412,47.11Z"/><path class="cls-9" d="M421.53,60.65h-2.11V39.38h2.11Z"/><path class="cls-9" d="M429.88,47.42h-2.36V60.65h-2.09V47.42h-1.85V46.28l1.85-.71v-1a12.07,12.07,0,0,1,.29-2.9,3.41,3.41,0,0,1,1-1.81,3,3,0,0,1,2-.62,5,5,0,0,1,1.12.11,7,7,0,0,1,1.06.32l-.55,1.7a6.88,6.88,0,0,0-.72-.21,3,3,0,0,0-.66-.08,1.15,1.15,0,0,0-1.16.75,8.45,8.45,0,0,0-.33,2.68v1.14h2.36Z"/><path class="cls-9" d="M431,54.14V52h6.14v2.1Z"/><path class="cls-9" d="M450.68,60.65H448.5V51.19h-6.33v9.46H440v-20h2.17v8.55h6.33V40.66h2.18Z"/><path class="cls-9" d="M463.86,53.13a15.65,15.65,0,0,1-.3,3.21,7.83,7.83,0,0,1-.92,2.46,4.13,4.13,0,0,1-3.79,2.12,4.22,4.22,0,0,1-2.16-.54,4.46,4.46,0,0,1-1.54-1.57,8.09,8.09,0,0,1-.93-2.46,15.07,15.07,0,0,1-.32-3.22,14.34,14.34,0,0,1,.54-4.22,5.32,5.32,0,0,1,1.64-2.64,4.31,4.31,0,0,1,2.81-.91,4.21,4.21,0,0,1,2.71.89,5.3,5.3,0,0,1,1.68,2.61A13.43,13.43,0,0,1,463.86,53.13Zm-7.81,0a15.15,15.15,0,0,0,.3,3.28,4.15,4.15,0,0,0,.94,2,2.15,2.15,0,0,0,1.62.67,2.07,2.07,0,0,0,1.59-.66,4.12,4.12,0,0,0,.92-2,15.36,15.36,0,0,0,.3-3.32,15.05,15.05,0,0,0-.3-3.27,4.24,4.24,0,0,0-.92-2,2.1,2.1,0,0,0-1.61-.66,2.25,2.25,0,0,0-2.17,1.48A11.23,11.23,0,0,0,456.05,53.13Z"/><path class="cls-9" d="M473.55,56.68a4.93,4.93,0,0,1-.49,2.31,3.37,3.37,0,0,1-1.43,1.44,4.83,4.83,0,0,1-2.28.49,7.11,7.11,0,0,1-1.9-.24,6.92,6.92,0,0,1-1.46-.59V57.9a5.15,5.15,0,0,0,1.49.82,5.34,5.34,0,0,0,1.8.32,2.07,2.07,0,0,0,1.62-.61,2.34,2.34,0,0,0,.57-1.68,2.53,2.53,0,0,0-.23-1.11,2.69,2.69,0,0,0-.75-.9,9.33,9.33,0,0,0-1.34-.91,14.06,14.06,0,0,1-1.65-1.19,4.32,4.32,0,0,1-1.11-1.42,4.26,4.26,0,0,1-.4-1.95,3.73,3.73,0,0,1,1.14-2.83,4.22,4.22,0,0,1,3-1.08,6.48,6.48,0,0,1,1.78.24,6,6,0,0,1,1.59.72l-.79,1.7a4.87,4.87,0,0,0-1.22-.63,3.86,3.86,0,0,0-1.34-.23,2.17,2.17,0,0,0-1.58.56,2,2,0,0,0-.58,1.5,2.39,2.39,0,0,0,.23,1.08,2.77,2.77,0,0,0,.77.87,13,13,0,0,0,1.41,1,13,13,0,0,1,1.63,1.2,4.35,4.35,0,0,1,1.1,1.4A4.26,4.26,0,0,1,473.55,56.68Z"/><path class="cls-9" d="M479.81,59.06a3.08,3.08,0,0,0,.68-.07,3.63,3.63,0,0,0,.66-.21V60.5a5.12,5.12,0,0,1-.91.31,5.32,5.32,0,0,1-1.1.11,2.69,2.69,0,0,1-1.59-.43,2.56,2.56,0,0,1-.92-1.31,7.1,7.1,0,0,1-.29-2.18V47.4h-1.4V46.25l1.49-.56.56-3.46h1.45v3.41H481V47.4h-2.55v9.35a4.23,4.23,0,0,0,.28,1.74A1.1,1.1,0,0,0,479.81,59.06Z"/><path class="cls-9" d="M487.51,45.39a3.64,3.64,0,0,1,2.52.89,5.39,5.39,0,0,1,1.48,2.39A11,11,0,0,1,492,52v1.49h-7.15a8.54,8.54,0,0,0,.87,4.21,2.77,2.77,0,0,0,2.54,1.41,5.36,5.36,0,0,0,1.58-.24,6.75,6.75,0,0,0,1.62-.8V60a6.16,6.16,0,0,1-1.63.71,6.65,6.65,0,0,1-1.81.23,4.47,4.47,0,0,1-3-1,5.68,5.68,0,0,1-1.69-2.75,13.66,13.66,0,0,1-.53-3.94A14.65,14.65,0,0,1,483.3,49a5.45,5.45,0,0,1,1.59-2.66A3.87,3.87,0,0,1,487.51,45.39Zm0,1.72a2.08,2.08,0,0,0-1.86,1.16,8,8,0,0,0-.78,3.56H490a9.53,9.53,0,0,0-.26-2.34,4.23,4.23,0,0,0-.82-1.73A1.81,1.81,0,0,0,487.51,47.11Z"/><path class="cls-9" d="M498.69,60.92a3.55,3.55,0,0,1-3.26-2,12,12,0,0,1-1.11-5.77,12.16,12.16,0,0,1,1.12-5.79A3.5,3.5,0,0,1,500,45.64a4,4,0,0,1,1.16.8,4.44,4.44,0,0,1,.86,1.23h.1c0-.41,0-.79-.05-1.12s0-.65,0-.94V39.38h2.09V60.65h-1.68l-.29-2H502a5.64,5.64,0,0,1-.87,1.23,3.35,3.35,0,0,1-1.09.79A3.41,3.41,0,0,1,498.69,60.92Zm.47-1.79a2.33,2.33,0,0,0,2.15-1.32,8.35,8.35,0,0,0,.73-3.93v-1a9.73,9.73,0,0,0-.7-4.24,2.33,2.33,0,0,0-2.21-1.38,2.15,2.15,0,0,0-2,1.52,11.8,11.8,0,0,0-.65,4.42,11.77,11.77,0,0,0,.65,4.44A2.16,2.16,0,0,0,499.16,59.13Z"/><path class="cls-11" d="M521,40.59l-7.31,20.13h-2L519,40.59Z"/><path class="cls-9" d="M534.73,42.33a3.19,3.19,0,0,0-2,.67,4.92,4.92,0,0,0-1.4,1.84,10.64,10.64,0,0,0-.79,2.66,18.82,18.82,0,0,0-.25,3.16,15.6,15.6,0,0,0,.56,4.43A6.65,6.65,0,0,0,532.42,58a3.4,3.4,0,0,0,2.45,1,6,6,0,0,0,1.6-.21,8.62,8.62,0,0,0,1.38-.54v2a5,5,0,0,1-1.46.57,8.16,8.16,0,0,1-1.77.18,5.38,5.38,0,0,1-3.53-1.23,7.84,7.84,0,0,1-2.29-3.53,16.76,16.76,0,0,1-.81-5.53,19.38,19.38,0,0,1,.4-4,11.29,11.29,0,0,1,1.23-3.28,6.39,6.39,0,0,1,2.09-2.22,5.32,5.32,0,0,1,2.95-.8,7,7,0,0,1,1.9.25,7.75,7.75,0,0,1,1.74.73l-.78,1.85a6,6,0,0,0-1.33-.63A4.69,4.69,0,0,0,534.73,42.33Z"/><path class="cls-9" d="M542.91,60.65H540.8V39.38h2.11Z"/><path class="cls-9" d="M555.85,53.13a15.65,15.65,0,0,1-.3,3.21,7.83,7.83,0,0,1-.91,2.46,4.13,4.13,0,0,1-3.79,2.12,4.22,4.22,0,0,1-2.16-.54,4.46,4.46,0,0,1-1.54-1.57,8.09,8.09,0,0,1-.93-2.46,15.07,15.07,0,0,1-.32-3.22,14.71,14.71,0,0,1,.53-4.22,5.46,5.46,0,0,1,1.64-2.64,4.34,4.34,0,0,1,2.82-.91,4.21,4.21,0,0,1,2.71.89,5.3,5.3,0,0,1,1.68,2.61A13.75,13.75,0,0,1,555.85,53.13Zm-7.8,0a15.15,15.15,0,0,0,.3,3.28,4.24,4.24,0,0,0,.93,2,2.18,2.18,0,0,0,1.62.67,2.11,2.11,0,0,0,1.6-.66,4.21,4.21,0,0,0,.92-2,15.36,15.36,0,0,0,.3-3.32,15.05,15.05,0,0,0-.3-3.27,4.34,4.34,0,0,0-.92-2,2.12,2.12,0,0,0-1.61-.66,2.24,2.24,0,0,0-2.17,1.48A11.23,11.23,0,0,0,548.05,53.13Z"/><path class="cls-9" d="M567.83,45.64v15h-1.68l-.23-2.13h-.15A4.46,4.46,0,0,1,565,59.8a3.55,3.55,0,0,1-1.11.83,3.38,3.38,0,0,1-1.41.29,3.24,3.24,0,0,1-2.11-.65,3.66,3.66,0,0,1-1.17-1.88,10.23,10.23,0,0,1-.36-2.89V45.64h2.11V55.1a7,7,0,0,0,.47,3,1.52,1.52,0,0,0,1.44,1,2.41,2.41,0,0,0,1.68-.58,3.46,3.46,0,0,0,.92-1.77,13.11,13.11,0,0,0,.29-3v-8Z"/><path class="cls-9" d="M575.23,60.92A3.55,3.55,0,0,1,572,59a11.89,11.89,0,0,1-1.12-5.77A12.28,12.28,0,0,1,572,47.39a3.51,3.51,0,0,1,4.56-1.75,3.91,3.91,0,0,1,1.15.8,4.68,4.68,0,0,1,.87,1.23h.1c0-.41,0-.79,0-1.12s0-.65,0-.94V39.38h2.09V60.65H579l-.29-2h-.12a6.41,6.41,0,0,1-.87,1.23,3.38,3.38,0,0,1-1.1.79A3.33,3.33,0,0,1,575.23,60.92Zm.46-1.79a2.34,2.34,0,0,0,2.16-1.32,8.48,8.48,0,0,0,.73-3.93v-1a9.71,9.71,0,0,0-.71-4.24,2.32,2.32,0,0,0-2.21-1.38,2.13,2.13,0,0,0-2,1.52,11.8,11.8,0,0,0-.65,4.42,11.77,11.77,0,0,0,.65,4.44A2.14,2.14,0,0,0,575.69,59.13Z"/><path class="cls-9" d="M394.51,62.36v-.69H505.94v.69Z"/><path class="cls-9" d="M526.58,62.36v-.69h55.89v.69Z"/></g><g id="shape57-37"><path class="cls-10" d="M697.88,453.5H919.24a20.39,20.39,0,0,0,20.38-20.38V92a20.39,20.39,0,0,0-20.38-20.38H697.88A20.39,20.39,0,0,0,677.5,92V433.12A20.39,20.39,0,0,0,697.88,453.5Z"/></g><g id="shape61-39"><path class="cls-9" d="M764.91,40.66a5.9,5.9,0,0,1,4.34,1.42,6.13,6.13,0,0,1,1.4,4.43,9.29,9.29,0,0,1-.36,2.72,5.38,5.38,0,0,1-1.08,2,4.38,4.38,0,0,1-1.81,1.19,7.25,7.25,0,0,1-2.55.41H763.5v7.86h-2.18v-20Zm-.09,1.92H763.5v8.28h1.16a4.49,4.49,0,0,0,2.15-.44A2.62,2.62,0,0,0,768,49a6.7,6.7,0,0,0,.39-2.49,4.3,4.3,0,0,0-.88-3A3.57,3.57,0,0,0,764.82,42.58Z"/><path class="cls-9" d="M778.36,45.38a3.35,3.35,0,0,1,.63,0,4,4,0,0,1,.65.15l-.32,2.16a2.38,2.38,0,0,0-.52-.15,5.47,5.47,0,0,0-.59,0,1.79,1.79,0,0,0-1.13.41,3.18,3.18,0,0,0-.88,1.12,6.63,6.63,0,0,0-.57,1.68,9.73,9.73,0,0,0-.18,2.07v7.82h-2.11v-15H775l.29,2.66h.14a7.57,7.57,0,0,1,.73-1.51,3.77,3.77,0,0,1,1-1A2.15,2.15,0,0,1,778.36,45.38Z"/><path class="cls-9" d="M791.05,53.13a15.65,15.65,0,0,1-.3,3.21,7.83,7.83,0,0,1-.92,2.46A4.13,4.13,0,0,1,786,60.92a4.22,4.22,0,0,1-2.16-.54,4.46,4.46,0,0,1-1.54-1.57,8.09,8.09,0,0,1-.93-2.46,15.07,15.07,0,0,1-.32-3.22,14.34,14.34,0,0,1,.54-4.22,5.32,5.32,0,0,1,1.64-2.64,4.31,4.31,0,0,1,2.81-.91,4.21,4.21,0,0,1,2.71.89,5.3,5.3,0,0,1,1.68,2.61A13.43,13.43,0,0,1,791.05,53.13Zm-7.81,0a15.15,15.15,0,0,0,.3,3.28,4.15,4.15,0,0,0,.94,2,2.15,2.15,0,0,0,1.62.67,2.09,2.09,0,0,0,1.59-.66,4.12,4.12,0,0,0,.92-2,15.36,15.36,0,0,0,.3-3.32,15.05,15.05,0,0,0-.3-3.27,4.24,4.24,0,0,0-.92-2,2.1,2.1,0,0,0-1.61-.66,2.25,2.25,0,0,0-2.17,1.48A11.23,11.23,0,0,0,783.24,53.13Z"/><path class="cls-9" d="M797.8,60.92a3.55,3.55,0,0,1-3.26-2,12,12,0,0,1-1.11-5.77,12.16,12.16,0,0,1,1.12-5.79,3.5,3.5,0,0,1,4.55-1.75,3.78,3.78,0,0,1,1.15.8,4.26,4.26,0,0,1,.87,1.23h.1c0-.41,0-.79-.05-1.12s0-.65,0-.94V39.38h2.09V60.65h-1.68l-.29-2h-.12a5.64,5.64,0,0,1-.87,1.23,3.45,3.45,0,0,1-1.09.79A3.41,3.41,0,0,1,797.8,60.92Zm.47-1.79a2.34,2.34,0,0,0,2.15-1.32,8.35,8.35,0,0,0,.73-3.93v-1a9.73,9.73,0,0,0-.7-4.24,2.33,2.33,0,0,0-2.21-1.38,2.14,2.14,0,0,0-2,1.52,11.8,11.8,0,0,0-.65,4.42,11.77,11.77,0,0,0,.65,4.44A2.15,2.15,0,0,0,798.27,59.13Z"/><path class="cls-9" d="M815.83,45.64v15h-1.68l-.23-2.13h-.15A4.25,4.25,0,0,1,813,59.8a3.44,3.44,0,0,1-1.11.83,3.38,3.38,0,0,1-1.41.29,3.26,3.26,0,0,1-2.11-.65,3.72,3.72,0,0,1-1.16-1.88,9.85,9.85,0,0,1-.37-2.89V45.64h2.11V55.1a7.17,7.17,0,0,0,.47,3,1.54,1.54,0,0,0,1.44,1,2.42,2.42,0,0,0,1.69-.58,3.53,3.53,0,0,0,.91-1.77,13.11,13.11,0,0,0,.29-3v-8Z"/><path class="cls-9" d="M823.83,60.92a4.28,4.28,0,0,1-2.75-.86,5,5,0,0,1-1.65-2.57,14.22,14.22,0,0,1-.55-4.24,14.24,14.24,0,0,1,.56-4.24,5.63,5.63,0,0,1,1.67-2.7,4.2,4.2,0,0,1,2.8-1,6,6,0,0,1,1.53.18,5.37,5.37,0,0,1,1.26.51L826,47.78a5.27,5.27,0,0,0-1-.41,3.78,3.78,0,0,0-1-.13,2.21,2.21,0,0,0-1.65.67,4.37,4.37,0,0,0-1,2,15.85,15.85,0,0,0,0,6.53,4.08,4.08,0,0,0,1,2,2.28,2.28,0,0,0,1.68.67,4.8,4.8,0,0,0,1.23-.17,6.79,6.79,0,0,0,1.25-.5v1.77a4.7,4.7,0,0,1-1.33.55A5.62,5.62,0,0,1,823.83,60.92Z"/><path class="cls-9" d="M832.64,59.06a3.21,3.21,0,0,0,.68-.07,3.63,3.63,0,0,0,.66-.21V60.5a4.61,4.61,0,0,1-2,.42,2.75,2.75,0,0,1-1.6-.43,2.55,2.55,0,0,1-.91-1.31,6.78,6.78,0,0,1-.3-2.18V47.4h-1.39V46.25l1.49-.56.56-3.46h1.45v3.41h2.54V47.4h-2.54v9.35a4.07,4.07,0,0,0,.28,1.74A1.1,1.1,0,0,0,832.64,59.06Z"/><path class="cls-9" d="M837.31,40a1.07,1.07,0,0,1,.94.41,2,2,0,0,1,.29,1.13,1.8,1.8,0,0,1-.31,1.12,1.1,1.1,0,0,1-.92.41,1.16,1.16,0,0,1-.93-.41,1.68,1.68,0,0,1-.34-1.12,1.77,1.77,0,0,1,.33-1.15A1.16,1.16,0,0,1,837.31,40Zm1,5.63v15h-2.09v-15Z"/><path class="cls-9" d="M851.31,53.13a15.65,15.65,0,0,1-.3,3.21,7.83,7.83,0,0,1-.92,2.46,4.1,4.1,0,0,1-3.78,2.12,4.22,4.22,0,0,1-2.16-.54,4.48,4.48,0,0,1-1.55-1.57,8.09,8.09,0,0,1-.93-2.46,15.1,15.1,0,0,1-.31-3.22,14.71,14.71,0,0,1,.53-4.22,5.39,5.39,0,0,1,1.64-2.64,4.34,4.34,0,0,1,2.82-.91,4.23,4.23,0,0,1,2.71.89,5.44,5.44,0,0,1,1.68,2.61A13.75,13.75,0,0,1,851.31,53.13Zm-7.81,0a15.08,15.08,0,0,0,.31,3.28,4.24,4.24,0,0,0,.93,2,2.18,2.18,0,0,0,1.62.67,2.07,2.07,0,0,0,1.59-.66,4.12,4.12,0,0,0,.93-2,15.36,15.36,0,0,0,.3-3.32,15.05,15.05,0,0,0-.3-3.27,4.25,4.25,0,0,0-.93-2,2.1,2.1,0,0,0-1.6-.66,2.26,2.26,0,0,0-2.18,1.48A11.41,11.41,0,0,0,843.5,53.13Z"/><path class="cls-9" d="M859.73,45.36a3.14,3.14,0,0,1,2.7,1.25,6.45,6.45,0,0,1,.91,3.81V60.65h-2.1v-9.8a6.12,6.12,0,0,0-.47-2.72,1.57,1.57,0,0,0-1.49-.91,2.28,2.28,0,0,0-2.16,1.32,9.72,9.72,0,0,0-.68,4.21v7.9h-2.11v-15H856l.24,2.17h.13a4.61,4.61,0,0,1,.81-1.3,3.66,3.66,0,0,1,1.13-.84A3.31,3.31,0,0,1,859.73,45.36Z"/><path class="cls-9" d="M759.26,62.36v-.69H865.12v.69Z"/></g><g id="shape97-43"><path class="cls-11" d="M93.05,55.19a6.61,6.61,0,0,1-.65,3,5,5,0,0,1-1.82,2,5.16,5.16,0,0,1-2.76.72,12.09,12.09,0,0,1-1.5-.09,8.65,8.65,0,0,1-1.38-.28,7.27,7.27,0,0,1-1.23-.47V57.82a8.89,8.89,0,0,0,4,1.07,2.83,2.83,0,0,0,1.68-.48,3,3,0,0,0,1-1.26,4.18,4.18,0,0,0,.36-1.75,4.28,4.28,0,0,0-.3-1.7,3.38,3.38,0,0,0-1-1.25,11.3,11.3,0,0,0-1.85-1.17,14.91,14.91,0,0,1-1.59-1,6,6,0,0,1-1.21-1.14,4.55,4.55,0,0,1-.78-1.5,6.86,6.86,0,0,1-.28-2,5.4,5.4,0,0,1,.63-2.75A4.56,4.56,0,0,1,86.27,41a5.23,5.23,0,0,1,2.65-.65,8.47,8.47,0,0,1,2.16.28,9.19,9.19,0,0,1,1.79.68l-.71,2a8.12,8.12,0,0,0-1.65-.68A5.82,5.82,0,0,0,89,42.42a3,3,0,0,0-1.57.4,2.77,2.77,0,0,0-1,1.09,3.52,3.52,0,0,0-.34,1.6,4.31,4.31,0,0,0,.3,1.74,3.27,3.27,0,0,0,1,1.22,14.19,14.19,0,0,0,1.83,1.15,10.19,10.19,0,0,1,2.16,1.47,5.11,5.11,0,0,1,1.28,1.78A6,6,0,0,1,93.05,55.19Z"/><path class="cls-11" d="M105.27,53.13a15.65,15.65,0,0,1-.3,3.21,7.83,7.83,0,0,1-.92,2.46,4.13,4.13,0,0,1-3.79,2.12,4.22,4.22,0,0,1-2.16-.54,4.46,4.46,0,0,1-1.54-1.57,8.09,8.09,0,0,1-.93-2.46,15.1,15.1,0,0,1-.31-3.22,14.36,14.36,0,0,1,.53-4.22,5.32,5.32,0,0,1,1.64-2.64,4.34,4.34,0,0,1,2.82-.91,4.2,4.2,0,0,1,2.7.89,5.3,5.3,0,0,1,1.68,2.61A13.43,13.43,0,0,1,105.27,53.13Zm-7.81,0a15.15,15.15,0,0,0,.3,3.28,4.24,4.24,0,0,0,.94,2,2.15,2.15,0,0,0,1.62.67,2.07,2.07,0,0,0,1.59-.66,4.12,4.12,0,0,0,.92-2,15.28,15.28,0,0,0,.31-3.32,15,15,0,0,0-.31-3.27,4.24,4.24,0,0,0-.92-2,2.1,2.1,0,0,0-1.6-.66,2.25,2.25,0,0,0-2.18,1.48A11.23,11.23,0,0,0,97.46,53.13Z"/><path class="cls-11" d="M113,47.42h-2.37V60.65h-2.09V47.42H106.7V46.28l1.85-.71v-1a12.6,12.6,0,0,1,.29-2.9,3.35,3.35,0,0,1,1-1.81,3,3,0,0,1,2-.62,4.86,4.86,0,0,1,1.11.11,7,7,0,0,1,1.06.32l-.55,1.7a5.72,5.72,0,0,0-.72-.21,3,3,0,0,0-.66-.08,1.14,1.14,0,0,0-1.15.75,8.09,8.09,0,0,0-.34,2.68v1.14H113Z"/><path class="cls-11" d="M118.78,59.06a3.21,3.21,0,0,0,.68-.07,3.63,3.63,0,0,0,.66-.21V60.5a4.61,4.61,0,0,1-2,.42,2.75,2.75,0,0,1-1.6-.43,2.55,2.55,0,0,1-.91-1.31,6.78,6.78,0,0,1-.3-2.18V47.4h-1.39V46.25l1.49-.56.56-3.46h1.45v3.41H120V47.4h-2.54v9.35a4.07,4.07,0,0,0,.28,1.74A1.1,1.1,0,0,0,118.78,59.06Z"/><path class="cls-11" d="M131.19,60.65l-1.81-9.31c0-.26-.09-.52-.13-.79s-.09-.55-.13-.82l-.12-.82c0-.27-.07-.53-.11-.78h-.07c0,.26-.07.53-.11.81l-.12.83c-.05.27-.09.54-.13.8s-.1.52-.14.77l-1.92,9.31H124l-3.24-15h2.1l1.6,7.82c.09.49.19,1,.28,1.51s.17,1,.26,1.54.16,1,.23,1.54h.08c0-.32.09-.65.14-1s.11-.72.17-1.1.12-.77.2-1.17.15-.82.24-1.24l1.63-7.9H130l1.61,7.94q.12.53.24,1.2c.08.46.16,1,.24,1.51s.17,1.13.26,1.76h.08c0-.27.06-.57.11-.89s.1-.66.16-1l.22-1.21,1.92-9.27h2l-3.31,15Z"/><path class="cls-11" d="M143,45.36a3.31,3.31,0,0,1,3,1.33,6.92,6.92,0,0,1,.89,3.84V60.65h-1.6L145,58.52h-.06a4.88,4.88,0,0,1-.85,1.3,3.18,3.18,0,0,1-1.12.82,3.47,3.47,0,0,1-1.45.28,2.89,2.89,0,0,1-1.9-.61,3.67,3.67,0,0,1-1.09-1.62,6.37,6.37,0,0,1-.36-2.17,4.56,4.56,0,0,1,1.29-3.46,5.49,5.49,0,0,1,3.65-1.34l1.71-.11v-1a5.34,5.34,0,0,0-.49-2.64,1.71,1.71,0,0,0-1.59-.84,4.56,4.56,0,0,0-1.32.22,7.59,7.59,0,0,0-1.5.7l-.67-1.59a6.75,6.75,0,0,1,1.82-.81A7.3,7.3,0,0,1,143,45.36Zm1.79,7.8-1.4.09a3.5,3.5,0,0,0-2.36.9,3.21,3.21,0,0,0-.77,2.32,3.41,3.41,0,0,0,.51,2.07,1.63,1.63,0,0,0,1.39.67,2.14,2.14,0,0,0,1.94-1.2,6.7,6.7,0,0,0,.69-3.32Z"/><path class="cls-11" d="M155.51,45.38a3.35,3.35,0,0,1,.63,0,4.42,4.42,0,0,1,.66.15l-.33,2.16a2.38,2.38,0,0,0-.52-.15,5.3,5.3,0,0,0-.59,0,1.81,1.81,0,0,0-1.13.41,3.3,3.3,0,0,0-.88,1.12,7.52,7.52,0,0,0-.57,1.68,9.73,9.73,0,0,0-.18,2.07v7.82h-2.11v-15h1.64l.29,2.66h.14a7.08,7.08,0,0,1,.74-1.51,3.75,3.75,0,0,1,1-1A2.18,2.18,0,0,1,155.51,45.38Z"/><path class="cls-11" d="M163,45.39a3.64,3.64,0,0,1,2.52.89A5.39,5.39,0,0,1,167,48.67,11,11,0,0,1,167.5,52v1.49h-7.15a8.54,8.54,0,0,0,.87,4.21,2.77,2.77,0,0,0,2.54,1.41,5.36,5.36,0,0,0,1.58-.24,6.75,6.75,0,0,0,1.62-.8V60a6.16,6.16,0,0,1-1.63.71,6.65,6.65,0,0,1-1.81.23,4.45,4.45,0,0,1-3-1,5.68,5.68,0,0,1-1.69-2.75,13.66,13.66,0,0,1-.53-3.94,14.65,14.65,0,0,1,.54-4.27,5.45,5.45,0,0,1,1.59-2.66A3.87,3.87,0,0,1,163,45.39Zm0,1.72a2.05,2.05,0,0,0-1.86,1.16,8,8,0,0,0-.78,3.56h5.15a10,10,0,0,0-.26-2.34,4.23,4.23,0,0,0-.82-1.73A1.81,1.81,0,0,0,163,47.11Z"/><path class="cls-11" d="M186.75,50.41a17.58,17.58,0,0,1-.78,5.65,7,7,0,0,1-2.31,3.43,6.24,6.24,0,0,1-3.84,1.16H175.9v-20H180a6.14,6.14,0,0,1,3.74,1.11A6.7,6.7,0,0,1,186,45.05,16.31,16.31,0,0,1,186.75,50.41Zm-2.27.11a16.5,16.5,0,0,0-.5-4.38,5.48,5.48,0,0,0-1.52-2.65,3.76,3.76,0,0,0-2.56-.89h-1.83V58.69h1.67a3.83,3.83,0,0,0,3.61-2A13.09,13.09,0,0,0,184.48,50.52Z"/><path class="cls-11" d="M194.11,45.39a3.64,3.64,0,0,1,2.52.89,5.39,5.39,0,0,1,1.48,2.39,11,11,0,0,1,.48,3.35v1.49h-7.15a8.54,8.54,0,0,0,.87,4.21,2.76,2.76,0,0,0,2.54,1.41,5.36,5.36,0,0,0,1.58-.24,6.52,6.52,0,0,0,1.61-.8V60a6,6,0,0,1-1.62.71,6.65,6.65,0,0,1-1.81.23,4.45,4.45,0,0,1-3-1,5.68,5.68,0,0,1-1.69-2.75,13.66,13.66,0,0,1-.53-3.94A14.65,14.65,0,0,1,189.9,49a5.45,5.45,0,0,1,1.59-2.66A3.85,3.85,0,0,1,194.11,45.39Zm0,1.72a2.05,2.05,0,0,0-1.86,1.16,8,8,0,0,0-.78,3.56h5.15a10,10,0,0,0-.26-2.34,4.36,4.36,0,0,0-.82-1.73A1.81,1.81,0,0,0,194.11,47.11Z"/><path class="cls-11" d="M203.6,60.65l-3.76-15H202l2.06,9.12c.13.54.24,1.1.35,1.68s.2,1.17.29,1.79h.11c.05-.36.12-.78.21-1.29s.21-1,.35-1.66l2.22-9.64h2.16l-3.82,15Z"/><path class="cls-11" d="M215.82,45.39a3.64,3.64,0,0,1,2.52.89,5.39,5.39,0,0,1,1.48,2.39A11,11,0,0,1,220.3,52v1.49h-7.15a8.54,8.54,0,0,0,.87,4.21,2.77,2.77,0,0,0,2.54,1.41,5.36,5.36,0,0,0,1.58-.24,6.75,6.75,0,0,0,1.62-.8V60a6.16,6.16,0,0,1-1.63.71,6.65,6.65,0,0,1-1.81.23,4.45,4.45,0,0,1-3-1,5.68,5.68,0,0,1-1.69-2.75,13.66,13.66,0,0,1-.53-3.94,14.65,14.65,0,0,1,.54-4.27,5.45,5.45,0,0,1,1.59-2.66A3.87,3.87,0,0,1,215.82,45.39Zm0,1.72A2.07,2.07,0,0,0,214,48.27a8,8,0,0,0-.78,3.56h5.15a10,10,0,0,0-.26-2.34,4.23,4.23,0,0,0-.82-1.73A1.81,1.81,0,0,0,215.82,47.11Z"/><path class="cls-11" d="M225.37,60.65h-2.1V39.38h2.1Z"/><path class="cls-11" d="M238.32,53.13a15.65,15.65,0,0,1-.3,3.21,7.83,7.83,0,0,1-.91,2.46,4.13,4.13,0,0,1-3.79,2.12,4.22,4.22,0,0,1-2.16-.54,4.48,4.48,0,0,1-1.55-1.57,8.09,8.09,0,0,1-.93-2.46,15.1,15.1,0,0,1-.31-3.22,14.71,14.71,0,0,1,.53-4.22,5.39,5.39,0,0,1,1.64-2.64,4.34,4.34,0,0,1,2.82-.91,4.21,4.21,0,0,1,2.71.89,5.44,5.44,0,0,1,1.68,2.61A13.75,13.75,0,0,1,238.32,53.13Zm-7.8,0a15.15,15.15,0,0,0,.3,3.28,4.24,4.24,0,0,0,.93,2,2.18,2.18,0,0,0,1.62.67,2.11,2.11,0,0,0,1.6-.66,4.21,4.21,0,0,0,.92-2,15.36,15.36,0,0,0,.3-3.32,15.05,15.05,0,0,0-.3-3.27,4.34,4.34,0,0,0-.92-2,2.12,2.12,0,0,0-1.61-.66,2.24,2.24,0,0,0-2.17,1.48A11.23,11.23,0,0,0,230.52,53.13Z"/><path class="cls-11" d="M246.77,45.36a3.59,3.59,0,0,1,3.28,1.94,12,12,0,0,1,1.11,5.82,15.7,15.7,0,0,1-.5,4.24A5.7,5.7,0,0,1,249.2,60a3.21,3.21,0,0,1-2.32.91,3.45,3.45,0,0,1-2.58-1.12,5,5,0,0,1-.85-1.27h-.1q0,.55.06,1c0,.34,0,.66,0,1v6.81h-2.11V45.64h1.71l.26,2.2h.13a4.89,4.89,0,0,1,.88-1.38,3.2,3.2,0,0,1,1.11-.82A3.31,3.31,0,0,1,246.77,45.36Zm-.45,1.82a2.21,2.21,0,0,0-1.59.6,3.74,3.74,0,0,0-1,1.82,12.25,12.25,0,0,0-.32,3v.72a13.68,13.68,0,0,0,.32,3.22,3.84,3.84,0,0,0,1,1.88,2.25,2.25,0,0,0,1.61.62,2,2,0,0,0,1.47-.63,4.23,4.23,0,0,0,.89-1.94,15.6,15.6,0,0,0,.3-3.37,12.13,12.13,0,0,0-.62-4.46A2.12,2.12,0,0,0,246.32,47.18Z"/><path class="cls-11" d="M258.28,45.39a3.64,3.64,0,0,1,2.52.89,5.22,5.22,0,0,1,1.48,2.39,11,11,0,0,1,.49,3.35v1.49h-7.15a8.44,8.44,0,0,0,.86,4.21A2.78,2.78,0,0,0,259,59.13a5.38,5.38,0,0,0,1.59-.24,6.69,6.69,0,0,0,1.61-.8V60a6,6,0,0,1-1.63.71,6.53,6.53,0,0,1-1.8.23,4.49,4.49,0,0,1-3-1,5.83,5.83,0,0,1-1.69-2.75,13.67,13.67,0,0,1-.52-3.94,15,15,0,0,1,.53-4.27,5.61,5.61,0,0,1,1.59-2.66A3.87,3.87,0,0,1,258.28,45.39Zm0,1.72a2.08,2.08,0,0,0-1.86,1.16,8.28,8.28,0,0,0-.78,3.56h5.16a9.51,9.51,0,0,0-.27-2.34,4.23,4.23,0,0,0-.82-1.73A1.79,1.79,0,0,0,258.28,47.11Z"/><path class="cls-11" d="M270.75,45.38a3.35,3.35,0,0,1,.63,0,4.42,4.42,0,0,1,.66.15l-.33,2.16a2.38,2.38,0,0,0-.52-.15,5.3,5.3,0,0,0-.59,0,1.79,1.79,0,0,0-1.13.41,3.3,3.3,0,0,0-.88,1.12,7.05,7.05,0,0,0-.57,1.68,9.73,9.73,0,0,0-.18,2.07v7.82h-2.11v-15h1.64l.29,2.66h.14a7.08,7.08,0,0,1,.74-1.51,3.61,3.61,0,0,1,1-1A2.18,2.18,0,0,1,270.75,45.38Z"/><path class="cls-11" d="M280.8,56.68a4.93,4.93,0,0,1-.49,2.31,3.37,3.37,0,0,1-1.43,1.44,4.83,4.83,0,0,1-2.28.49,7.11,7.11,0,0,1-1.9-.24,6.92,6.92,0,0,1-1.46-.59V57.9a5.15,5.15,0,0,0,1.49.82,5.34,5.34,0,0,0,1.8.32,2.07,2.07,0,0,0,1.62-.61,2.34,2.34,0,0,0,.57-1.68,2.53,2.53,0,0,0-.23-1.11,2.69,2.69,0,0,0-.75-.9,9.33,9.33,0,0,0-1.34-.91,14.06,14.06,0,0,1-1.65-1.19,4.32,4.32,0,0,1-1.11-1.42,4.26,4.26,0,0,1-.4-1.95,3.73,3.73,0,0,1,1.14-2.83,4.22,4.22,0,0,1,3-1.08,6.48,6.48,0,0,1,1.78.24,6,6,0,0,1,1.59.72L280,48a4.87,4.87,0,0,0-1.22-.63,3.86,3.86,0,0,0-1.34-.23,2.17,2.17,0,0,0-1.58.56,2,2,0,0,0-.58,1.5,2.27,2.27,0,0,0,.24,1.08,2.73,2.73,0,0,0,.76.87,13,13,0,0,0,1.41,1,13,13,0,0,1,1.63,1.2,4.35,4.35,0,0,1,1.1,1.4A4.26,4.26,0,0,1,280.8,56.68Z"/><path class="cls-11" d="M82.63,62.36v-.69H281.7v.69Z"/></g><g id="shape109-47"><rect class="cls-12" x="711.25" y="296" width="198" height="126" rx="11.34"/><g class="cls-6"><g class="cls-6"><path class="cls-11" d="M780.81,345.14a6.61,6.61,0,0,1-.65,3,4.89,4.89,0,0,1-1.82,2,5.16,5.16,0,0,1-2.76.72,12.21,12.21,0,0,1-1.5-.09,8.3,8.3,0,0,1-1.37-.28,7.06,7.06,0,0,1-1.24-.47v-2.26a9,9,0,0,0,4,1.07,2.83,2.83,0,0,0,1.68-.48,3,3,0,0,0,1.05-1.26,4.18,4.18,0,0,0,.36-1.75,4.24,4.24,0,0,0-.3-1.7,3.38,3.38,0,0,0-1-1.25,10.88,10.88,0,0,0-1.85-1.17,13.81,13.81,0,0,1-1.58-1,6.06,6.06,0,0,1-1.22-1.14,4.55,4.55,0,0,1-.78-1.5,6.88,6.88,0,0,1-.27-2.05,5.4,5.4,0,0,1,.62-2.75A4.56,4.56,0,0,1,774,331a5.26,5.26,0,0,1,2.65-.65,8.54,8.54,0,0,1,2.17.28,9.33,9.33,0,0,1,1.78.68l-.71,2a8.12,8.12,0,0,0-1.65-.68,5.79,5.79,0,0,0-1.55-.22,3,3,0,0,0-1.57.39,2.67,2.67,0,0,0-1,1.09,3.41,3.41,0,0,0-.35,1.61,4.3,4.3,0,0,0,.3,1.73,3.27,3.27,0,0,0,1,1.22,14.19,14.19,0,0,0,1.83,1.15A10.19,10.19,0,0,1,779.1,341a5.11,5.11,0,0,1,1.28,1.78A5.79,5.79,0,0,1,780.81,345.14Z"/><path class="cls-11" d="M793,343.08a15.71,15.71,0,0,1-.3,3.21,7.83,7.83,0,0,1-.92,2.46,4.12,4.12,0,0,1-3.78,2.12,4.22,4.22,0,0,1-2.16-.54,4.48,4.48,0,0,1-1.55-1.57,8.09,8.09,0,0,1-.93-2.46,15.17,15.17,0,0,1-.31-3.22,14.36,14.36,0,0,1,.53-4.22,5.39,5.39,0,0,1,1.64-2.64,4.34,4.34,0,0,1,2.82-.91,4.18,4.18,0,0,1,2.7.89,5.43,5.43,0,0,1,1.69,2.61A13.75,13.75,0,0,1,793,343.08Zm-7.81,0a15.15,15.15,0,0,0,.3,3.28,4.24,4.24,0,0,0,.94,2,2.15,2.15,0,0,0,1.62.67,2.07,2.07,0,0,0,1.59-.66,4.12,4.12,0,0,0,.93-2,15.36,15.36,0,0,0,.3-3.32,15.05,15.05,0,0,0-.3-3.27,4.25,4.25,0,0,0-.93-2,2.1,2.1,0,0,0-1.6-.66,2.27,2.27,0,0,0-2.18,1.48A11.41,11.41,0,0,0,785.22,343.08Z"/><path class="cls-11" d="M800.77,337.37H798.4V350.6h-2.09V337.37h-1.84v-1.14l1.84-.71v-1a12,12,0,0,1,.3-2.9,3.28,3.28,0,0,1,1-1.81,3,3,0,0,1,2-.62,4.86,4.86,0,0,1,1.11.11,6.68,6.68,0,0,1,1.06.32l-.55,1.7a6.12,6.12,0,0,0-.71-.21,3.14,3.14,0,0,0-.67-.08,1.14,1.14,0,0,0-1.15.75,8.09,8.09,0,0,0-.34,2.68v1.14h2.37Z"/><path class="cls-11" d="M806.54,349a3.14,3.14,0,0,0,.68-.07,3.63,3.63,0,0,0,.66-.21v1.72a5,5,0,0,1-.92.31,5.22,5.22,0,0,1-1.09.11,2.69,2.69,0,0,1-1.59-.43,2.56,2.56,0,0,1-.92-1.31,6.81,6.81,0,0,1-.29-2.18v-9.6h-1.4V336.2l1.49-.56.56-3.46h1.45v3.41h2.54v1.76h-2.54v9.35a4.07,4.07,0,0,0,.28,1.74A1.1,1.1,0,0,0,806.54,349Z"/><path class="cls-11" d="M819,350.6l-1.8-9.31c0-.26-.09-.52-.14-.79s-.09-.55-.13-.82l-.12-.82c0-.27-.07-.53-.11-.78h-.06q-.06.39-.12.81l-.12.83c0,.27-.09.54-.13.8s-.09.52-.14.77l-1.91,9.31h-2.41l-3.24-15h2.11l1.6,7.82c.09.49.18,1,.27,1.51s.18,1,.26,1.54.16,1,.23,1.54h.08c0-.32.1-.65.15-1s.1-.72.16-1.1.13-.77.2-1.17.15-.82.24-1.24l1.63-7.9h2.34l1.61,7.94q.14.53.24,1.2c.08.46.16,1,.24,1.51s.17,1.13.26,1.76h.08c0-.27.07-.57.11-.89s.1-.66.17-1,.13-.78.22-1.21l1.91-9.27h2l-3.31,15Z"/><path class="cls-11" d="M830.78,335.31a3.31,3.31,0,0,1,3,1.33,6.84,6.84,0,0,1,.89,3.84V350.6H833l-.31-2.13h-.06a4.85,4.85,0,0,1-.84,1.3,3.37,3.37,0,0,1-1.12.82,3.51,3.51,0,0,1-1.45.28,2.85,2.85,0,0,1-1.9-.61,3.6,3.6,0,0,1-1.1-1.62,6.63,6.63,0,0,1-.35-2.17,4.6,4.6,0,0,1,1.28-3.46,5.51,5.51,0,0,1,3.65-1.34l1.71-.11v-1a5.34,5.34,0,0,0-.49-2.64,1.71,1.71,0,0,0-1.59-.84,4.56,4.56,0,0,0-1.32.22,7.53,7.53,0,0,0-1.49.7l-.67-1.59a6.69,6.69,0,0,1,1.81-.81A7.3,7.3,0,0,1,830.78,335.31Zm1.79,7.8-1.4.09a3.47,3.47,0,0,0-2.35.9,3.17,3.17,0,0,0-.78,2.32,3.41,3.41,0,0,0,.51,2.07,1.64,1.64,0,0,0,1.39.67,2.14,2.14,0,0,0,1.94-1.2,6.7,6.7,0,0,0,.69-3.32Z"/><path class="cls-11" d="M843.27,335.33a3.35,3.35,0,0,1,.63.05,4.42,4.42,0,0,1,.66.15l-.33,2.16a2.23,2.23,0,0,0-.52-.15,5.3,5.3,0,0,0-.59,0,1.81,1.81,0,0,0-1.13.41,3.3,3.3,0,0,0-.88,1.12,7,7,0,0,0-.56,1.69,9,9,0,0,0-.19,2.06v7.82h-2.1v-15h1.64l.28,2.66h.14a7.58,7.58,0,0,1,.74-1.51,3.63,3.63,0,0,1,1-1A2.12,2.12,0,0,1,843.27,335.33Z"/><path class="cls-11" d="M850.78,335.34a3.64,3.64,0,0,1,2.52.89,5.39,5.39,0,0,1,1.48,2.39,11,11,0,0,1,.48,3.35v1.49h-7.15a8.54,8.54,0,0,0,.87,4.21,2.77,2.77,0,0,0,2.54,1.41,5.31,5.31,0,0,0,1.58-.24,6.75,6.75,0,0,0,1.62-.8v1.89a6.16,6.16,0,0,1-1.63.71,6.65,6.65,0,0,1-1.81.23,4.47,4.47,0,0,1-3-1,5.76,5.76,0,0,1-1.69-2.75,13.66,13.66,0,0,1-.53-3.94,14.65,14.65,0,0,1,.54-4.27,5.45,5.45,0,0,1,1.59-2.66A3.92,3.92,0,0,1,850.78,335.34Zm0,1.72a2.08,2.08,0,0,0-1.86,1.16,8,8,0,0,0-.78,3.56h5.15a9.53,9.53,0,0,0-.26-2.34,4.23,4.23,0,0,0-.82-1.73A1.81,1.81,0,0,0,850.78,337.06Z"/></g><g class="cls-6"><path class="cls-11" d="M770.15,384.2l-1.51-6.43H763.9l-1.51,6.43h-2.32l4.83-20h2.63l4.93,20Zm-1.92-8.44L766.7,369c-.06-.33-.13-.66-.18-1s-.12-.64-.17-.94-.1-.61-.14-.9c0,.29-.07.6-.11.9s-.1.63-.17.94-.13.64-.2,1l-1.49,6.8Z"/><path class="cls-11" d="M779.72,368.91a3.56,3.56,0,0,1,3.27,1.94,12,12,0,0,1,1.11,5.82,15.73,15.73,0,0,1-.49,4.24,5.78,5.78,0,0,1-1.46,2.65,3.24,3.24,0,0,1-2.33.91,3.53,3.53,0,0,1-1.42-.29,3.62,3.62,0,0,1-1.16-.84,4.73,4.73,0,0,1-.85-1.26h-.09c0,.36,0,.72.06,1.05s0,.66,0,1v6.81h-2.1V369.19H776l.26,2.2h.12a5.12,5.12,0,0,1,.88-1.38,3.24,3.24,0,0,1,1.12-.82A3.28,3.28,0,0,1,779.72,368.91Zm-.46,1.82a2.25,2.25,0,0,0-1.59.6,3.92,3.92,0,0,0-1,1.82,12.25,12.25,0,0,0-.32,3v.72a13.68,13.68,0,0,0,.32,3.22,3.84,3.84,0,0,0,1,1.88,2.23,2.23,0,0,0,1.6.62,2,2,0,0,0,1.47-.63,4.13,4.13,0,0,0,.9-1.94,15.6,15.6,0,0,0,.3-3.37,12.35,12.35,0,0,0-.62-4.46A2.14,2.14,0,0,0,779.26,370.73Z"/><path class="cls-11" d="M792.53,368.91a3.56,3.56,0,0,1,3.27,1.94,12,12,0,0,1,1.11,5.82,15.73,15.73,0,0,1-.49,4.24,5.78,5.78,0,0,1-1.46,2.65,3.23,3.23,0,0,1-2.32.91,3.55,3.55,0,0,1-1.43-.29,3.62,3.62,0,0,1-1.16-.84,4.73,4.73,0,0,1-.85-1.26h-.09c0,.36,0,.72.06,1.05s0,.66,0,1v6.81h-2.1V369.19h1.71l.26,2.2h.12a5.12,5.12,0,0,1,.88-1.38,3.24,3.24,0,0,1,1.12-.82A3.28,3.28,0,0,1,792.53,368.91Zm-.46,1.82a2.25,2.25,0,0,0-1.59.6,3.82,3.82,0,0,0-1,1.82,11.74,11.74,0,0,0-.33,3v.72a13.11,13.11,0,0,0,.33,3.22,3.76,3.76,0,0,0,1,1.88,2.23,2.23,0,0,0,1.6.62,1.92,1.92,0,0,0,1.47-.63,4.13,4.13,0,0,0,.9-1.94,15.6,15.6,0,0,0,.3-3.37,12.35,12.35,0,0,0-.62-4.46A2.14,2.14,0,0,0,792.07,370.73Z"/><path class="cls-11" d="M802,384.2h-2.1V362.93H802Z"/><path class="cls-11" d="M806.76,363.55a1,1,0,0,1,.93.42,1.87,1.87,0,0,1,.3,1.13,1.8,1.8,0,0,1-.32,1.12,1.08,1.08,0,0,1-.91.41,1.16,1.16,0,0,1-.93-.41,1.68,1.68,0,0,1-.34-1.12,1.77,1.77,0,0,1,.33-1.15A1.15,1.15,0,0,1,806.76,363.55Zm1,5.64v15h-2.09v-15Z"/><path class="cls-11" d="M815.78,384.47a4.28,4.28,0,0,1-2.75-.86,5,5,0,0,1-1.65-2.57,16.47,16.47,0,0,1,0-8.48,5.63,5.63,0,0,1,1.67-2.7,4.2,4.2,0,0,1,2.8-.95,6,6,0,0,1,1.53.18,5.37,5.37,0,0,1,1.26.51l-.67,1.73a4.69,4.69,0,0,0-1-.41,3.72,3.72,0,0,0-1-.13,2.21,2.21,0,0,0-1.65.67,4.37,4.37,0,0,0-1,2,15.85,15.85,0,0,0,0,6.53,4.08,4.08,0,0,0,1,2,2.28,2.28,0,0,0,1.68.67,4.8,4.8,0,0,0,1.23-.17,6.79,6.79,0,0,0,1.25-.5v1.77a4.7,4.7,0,0,1-1.33.55A5.62,5.62,0,0,1,815.78,384.47Z"/><path class="cls-11" d="M825.08,368.91a3.34,3.34,0,0,1,3,1.33,6.93,6.93,0,0,1,.88,3.84V384.2h-1.6l-.31-2.13h0a5.13,5.13,0,0,1-.85,1.3,3.27,3.27,0,0,1-1.12.82,3.51,3.51,0,0,1-1.45.28,2.85,2.85,0,0,1-1.9-.61,3.6,3.6,0,0,1-1.1-1.62,6.67,6.67,0,0,1-.35-2.17,4.6,4.6,0,0,1,1.28-3.46,5.46,5.46,0,0,1,3.65-1.34l1.71-.11v-1a5.34,5.34,0,0,0-.49-2.64,1.71,1.71,0,0,0-1.59-.84,4.61,4.61,0,0,0-1.32.22,7.8,7.8,0,0,0-1.49.7l-.67-1.59a6.69,6.69,0,0,1,1.81-.81A7.35,7.35,0,0,1,825.08,368.91Zm1.79,7.8-1.39.09a3.48,3.48,0,0,0-2.36.9,3.17,3.17,0,0,0-.78,2.32,3.41,3.41,0,0,0,.51,2.07,1.64,1.64,0,0,0,1.39.67,2.14,2.14,0,0,0,1.94-1.2,6.7,6.7,0,0,0,.69-3.32Z"/><path class="cls-11" d="M836.08,382.61a3.23,3.23,0,0,0,.69-.07,3.79,3.79,0,0,0,.65-.21v1.72a4.86,4.86,0,0,1-.91.31,5.25,5.25,0,0,1-1.1.11,2.73,2.73,0,0,1-1.59-.43,2.62,2.62,0,0,1-.92-1.31,7.1,7.1,0,0,1-.29-2.18V371h-1.39V369.8l1.49-.56.56-3.46h1.45v3.41h2.54V371h-2.54v9.35A4.07,4.07,0,0,0,835,382,1.08,1.08,0,0,0,836.08,382.61Z"/><path class="cls-11" d="M840.76,363.55a1.07,1.07,0,0,1,.94.42,2,2,0,0,1,.29,1.13,1.8,1.8,0,0,1-.31,1.12,1.1,1.1,0,0,1-.92.41,1.16,1.16,0,0,1-.93-.41,1.68,1.68,0,0,1-.34-1.12,1.77,1.77,0,0,1,.33-1.15A1.15,1.15,0,0,1,840.76,363.55Zm1,5.64v15h-2.09v-15Z"/><path class="cls-11" d="M854.76,376.68a15.71,15.71,0,0,1-.3,3.21,7.83,7.83,0,0,1-.92,2.46,4.12,4.12,0,0,1-3.78,2.12,4.22,4.22,0,0,1-2.16-.54,4.48,4.48,0,0,1-1.55-1.57,8.09,8.09,0,0,1-.93-2.46,15.17,15.17,0,0,1-.31-3.22,14.36,14.36,0,0,1,.53-4.22,5.32,5.32,0,0,1,1.64-2.64,4.34,4.34,0,0,1,2.82-.91,4.18,4.18,0,0,1,2.7.89,5.43,5.43,0,0,1,1.69,2.61A13.75,13.75,0,0,1,854.76,376.68Zm-7.81,0a15.15,15.15,0,0,0,.3,3.28,4.29,4.29,0,0,0,.94,2,2.15,2.15,0,0,0,1.62.67,2.07,2.07,0,0,0,1.59-.66,4.12,4.12,0,0,0,.93-2,15.36,15.36,0,0,0,.3-3.32,15.05,15.05,0,0,0-.3-3.27,4.25,4.25,0,0,0-.93-2,2.1,2.1,0,0,0-1.6-.66,2.27,2.27,0,0,0-2.18,1.48A11.41,11.41,0,0,0,847,376.68Z"/><path class="cls-11" d="M863.18,368.91a3.12,3.12,0,0,1,2.69,1.25,6.37,6.37,0,0,1,.92,3.81V384.2h-2.1v-9.8a6,6,0,0,0-.48-2.72,1.55,1.55,0,0,0-1.48-.91,2.28,2.28,0,0,0-2.16,1.32,9.54,9.54,0,0,0-.68,4.21v7.9h-2.11v-15h1.68l.23,2.17h.14a4.61,4.61,0,0,1,.81-1.3,3.55,3.55,0,0,1,1.13-.84A3.17,3.17,0,0,1,863.18,368.91Z"/></g></g></g><g id="shape114-51"><path class="cls-8"/><path class="cls-4" d="M695.17,170.23"/></g><g id="shape112-60"><rect class="cls-5" x="391.75" y="111.03" width="193.5" height="119.56" rx="11.34"/><g class="cls-6"><path class="cls-7" d="M455.72,176a5.86,5.86,0,0,1,4.34,1.42,6.11,6.11,0,0,1,1.4,4.43,9.22,9.22,0,0,1-.36,2.71,5.24,5.24,0,0,1-1.08,2,4.49,4.49,0,0,1-1.81,1.2,7.26,7.26,0,0,1-2.55.4h-1.35V196h-2.18V176Zm-.09,1.91h-1.32v8.28h1.16a4.62,4.62,0,0,0,2.15-.43,2.6,2.6,0,0,0,1.22-1.4,6.63,6.63,0,0,0,.39-2.49,4.36,4.36,0,0,0-.87-3A3.65,3.65,0,0,0,455.63,177.94Z"/><path class="cls-7" d="M466.26,196h-2.11V174.74h2.11Z"/><path class="cls-7" d="M473.91,180.73a3.31,3.31,0,0,1,3,1.32,7,7,0,0,1,.89,3.85V196h-1.6l-.31-2.13h-.06a5.2,5.2,0,0,1-.85,1.31,3.41,3.41,0,0,1-1.12.82,3.64,3.64,0,0,1-1.45.28,2.88,2.88,0,0,1-1.9-.62,3.67,3.67,0,0,1-1.09-1.62,6.37,6.37,0,0,1-.36-2.17,4.54,4.54,0,0,1,1.29-3.45,5.42,5.42,0,0,1,3.65-1.34l1.71-.11v-1a5.51,5.51,0,0,0-.49-2.64,1.72,1.72,0,0,0-1.59-.83,4.24,4.24,0,0,0-1.32.22,7.5,7.5,0,0,0-1.5.69l-.67-1.58a6.25,6.25,0,0,1,1.81-.81A7.4,7.4,0,0,1,473.91,180.73Zm1.79,7.79-1.39.1a3.45,3.45,0,0,0-2.36.89,3.25,3.25,0,0,0-.77,2.32,3.44,3.44,0,0,0,.51,2.08,1.63,1.63,0,0,0,1.39.67,2.13,2.13,0,0,0,1.93-1.2,6.74,6.74,0,0,0,.69-3.33Z"/><path class="cls-7" d="M484.92,194.43a3.08,3.08,0,0,0,.68-.08,3.63,3.63,0,0,0,.66-.21v1.72a5,5,0,0,1-.92.31,4.55,4.55,0,0,1-1.09.12,2.69,2.69,0,0,1-1.59-.44,2.52,2.52,0,0,1-.92-1.31,6.73,6.73,0,0,1-.29-2.18v-9.59h-1.4v-1.15l1.49-.56.56-3.46h1.45V181h2.55v1.77h-2.55v9.35a4.21,4.21,0,0,0,.28,1.73A1.09,1.09,0,0,0,484.92,194.43Z"/><path class="cls-7" d="M493.2,182.78h-2.36V196h-2.09V182.78H486.9v-1.14l1.85-.71v-1A12.66,12.66,0,0,1,489,177a3.39,3.39,0,0,1,1-1.81,3,3,0,0,1,2-.62,5.52,5.52,0,0,1,1.12.11,6.09,6.09,0,0,1,1.06.33l-.55,1.69a5.72,5.72,0,0,0-.72-.21,3,3,0,0,0-.66-.07,1.14,1.14,0,0,0-1.16.74,8.52,8.52,0,0,0-.33,2.69V181h2.36Z"/><path class="cls-7" d="M504.76,188.49a15.82,15.82,0,0,1-.3,3.22,8,8,0,0,1-.92,2.46,4.35,4.35,0,0,1-1.56,1.57,4.41,4.41,0,0,1-2.23.55,4.23,4.23,0,0,1-2.16-.55,4.38,4.38,0,0,1-1.54-1.57,7.89,7.89,0,0,1-.93-2.46,15.07,15.07,0,0,1-.32-3.22,14.26,14.26,0,0,1,.54-4.21,5.23,5.23,0,0,1,1.64-2.64,4.26,4.26,0,0,1,2.81-.91,4.2,4.2,0,0,1,2.71.88,5.39,5.39,0,0,1,1.68,2.61A13.52,13.52,0,0,1,504.76,188.49Zm-7.81,0a15.25,15.25,0,0,0,.3,3.29,4.11,4.11,0,0,0,.94,2,2.28,2.28,0,0,0,3.21,0,4.16,4.16,0,0,0,.92-2,15.29,15.29,0,0,0,.3-3.32,15.05,15.05,0,0,0-.3-3.27,4.16,4.16,0,0,0-.92-2,2.11,2.11,0,0,0-1.61-.67,2.26,2.26,0,0,0-2.17,1.49A11.2,11.2,0,0,0,497,188.49Z"/><path class="cls-7" d="M512.8,180.74a4.46,4.46,0,0,1,.63,0,3.42,3.42,0,0,1,.65.16l-.33,2.16a1.49,1.49,0,0,0-.52-.15,3.52,3.52,0,0,0-.58,0,1.78,1.78,0,0,0-1.13.4,3.22,3.22,0,0,0-.88,1.13,6.37,6.37,0,0,0-.57,1.68,10.38,10.38,0,0,0-.19,2.06V196h-2.1V181h1.64l.29,2.67h.13a7.68,7.68,0,0,1,.74-1.52,3.47,3.47,0,0,1,1-1A2.16,2.16,0,0,1,512.8,180.74Z"/><path class="cls-7" d="M528,180.73a2.93,2.93,0,0,1,2.62,1.28,7.08,7.08,0,0,1,.85,3.89V196h-2.11v-9.74a6,6,0,0,0-.49-2.83,1.59,1.59,0,0,0-1.45-.85,2,2,0,0,0-2,1.28,9.3,9.3,0,0,0-.59,3.72V196h-2.08v-9.77a8.21,8.21,0,0,0-.22-2.14,2.19,2.19,0,0,0-.65-1.16,1.67,1.67,0,0,0-1.08-.35,1.84,1.84,0,0,0-1.56.7,4.14,4.14,0,0,0-.76,1.91,16.44,16.44,0,0,0-.21,2.77v8h-2.11V181h1.68l.25,2.13h.12a4.24,4.24,0,0,1,.74-1.29A3,3,0,0,1,520,181a3.23,3.23,0,0,1,1.41-.29,2.86,2.86,0,0,1,2,.7,3.39,3.39,0,0,1,1,1.77h.15a4.43,4.43,0,0,1,1.3-1.86A3.2,3.2,0,0,1,528,180.73Z"/></g></g><g id="shape123-63"><g class="cls-6"><g class="cls-6"><path class="cls-7" d="M477,147.8l0,5.61-5.56,3.09,6.68,5.41-9.4,7,3.89-6.33-8.22-6.25-.05-.08Z"/></g><g class="cls-6"><path class="cls-9" d="M485.05,157.13h3.23v5.25h5.21v3.26h-5.21v5.25h-3.23v-5.25h-5.2v-3.26h5.2Z"/><path class="cls-9" d="M501.45,157.13h3.24v5.25h5.2v3.26h-5.2v5.25h-3.24v-5.25h-5.2v-3.26h5.2Z"/></g></g></g><g id="shape167-67"><rect class="cls-5" x="711.25" y="134" width="198" height="72.45" rx="11.34"/><g class="cls-6"><path class="cls-7" d="M788.94,175.44a5.9,5.9,0,0,1,4.34,1.42,6.13,6.13,0,0,1,1.4,4.43,9.29,9.29,0,0,1-.36,2.72,5.38,5.38,0,0,1-1.08,2,4.56,4.56,0,0,1-1.81,1.2,7.5,7.5,0,0,1-2.55.4h-1.35v7.86h-2.18v-20Zm-.09,1.92h-1.32v8.28h1.16a4.49,4.49,0,0,0,2.15-.44,2.62,2.62,0,0,0,1.22-1.39,6.7,6.7,0,0,0,.39-2.49,4.3,4.3,0,0,0-.88-3A3.57,3.57,0,0,0,788.85,177.36Z"/><path class="cls-7" d="M802.39,180.16a3.35,3.35,0,0,1,.63.05,4,4,0,0,1,.65.15l-.32,2.16a2.38,2.38,0,0,0-.52-.15,5.47,5.47,0,0,0-.59,0,1.79,1.79,0,0,0-1.13.41,3.18,3.18,0,0,0-.88,1.12,6.58,6.58,0,0,0-.57,1.69,9.58,9.58,0,0,0-.18,2.06v7.82h-2.11v-15H799l.29,2.66h.14a7.57,7.57,0,0,1,.73-1.51,3.77,3.77,0,0,1,1-1A2.15,2.15,0,0,1,802.39,180.16Z"/><path class="cls-7" d="M815.08,187.91a15.65,15.65,0,0,1-.3,3.21,8.09,8.09,0,0,1-.92,2.46,4.13,4.13,0,0,1-3.79,2.12,4.22,4.22,0,0,1-2.16-.54,4.46,4.46,0,0,1-1.54-1.57,8.09,8.09,0,0,1-.93-2.46,15.07,15.07,0,0,1-.32-3.22,14.34,14.34,0,0,1,.54-4.22,5.32,5.32,0,0,1,1.64-2.64,4.29,4.29,0,0,1,2.81-.91,4.21,4.21,0,0,1,2.71.89,5.35,5.35,0,0,1,1.68,2.61A13.77,13.77,0,0,1,815.08,187.91Zm-7.81,0a15.15,15.15,0,0,0,.3,3.28,4.15,4.15,0,0,0,.94,2,2.15,2.15,0,0,0,1.62.67,2.1,2.1,0,0,0,1.59-.66,4.21,4.21,0,0,0,.92-2,15.36,15.36,0,0,0,.3-3.32,15.05,15.05,0,0,0-.3-3.27,4.34,4.34,0,0,0-.92-2,2.12,2.12,0,0,0-1.61-.66,2.26,2.26,0,0,0-2.17,1.48A11.23,11.23,0,0,0,807.27,187.91Z"/><path class="cls-7" d="M820.2,174.16v6.26c0,.29,0,.62,0,1s0,.74,0,1.14h.1a4.33,4.33,0,0,1,1.4-1.77,3.22,3.22,0,0,1,1.92-.6,3.56,3.56,0,0,1,3.26,2,11.83,11.83,0,0,1,1.12,5.77,15.86,15.86,0,0,1-.5,4.26A5.66,5.66,0,0,1,826,194.8a3.34,3.34,0,0,1-2.36.9,3.4,3.4,0,0,1-1.94-.55,4.4,4.4,0,0,1-1.44-1.72h-.12l-.3,2H818.1V174.16Zm2.9,7.86a2.22,2.22,0,0,0-1.78.73,4.2,4.2,0,0,0-.87,2,14.92,14.92,0,0,0-.25,2.9v.64a9.45,9.45,0,0,0,.73,4.22,2.34,2.34,0,0,0,2.18,1.37,2.12,2.12,0,0,0,2-1.46,11.69,11.69,0,0,0,.66-4.55,11.49,11.49,0,0,0-.64-4.38A2.12,2.12,0,0,0,823.1,182Z"/><path class="cls-7" d="M835,180.17a3.64,3.64,0,0,1,2.52.89,5.39,5.39,0,0,1,1.48,2.39,11,11,0,0,1,.48,3.35v1.49h-7.15a8.54,8.54,0,0,0,.87,4.21,2.77,2.77,0,0,0,2.54,1.41,5.36,5.36,0,0,0,1.58-.24,6.52,6.52,0,0,0,1.61-.8v1.89a6.1,6.1,0,0,1-1.62.71,6.65,6.65,0,0,1-1.81.23,4.45,4.45,0,0,1-3-1,5.68,5.68,0,0,1-1.69-2.75,13.66,13.66,0,0,1-.53-3.94,14.65,14.65,0,0,1,.54-4.27,5.45,5.45,0,0,1,1.59-2.66A3.9,3.9,0,0,1,835,180.17Zm0,1.72a2.05,2.05,0,0,0-1.86,1.16,8,8,0,0,0-.78,3.56h5.15a10,10,0,0,0-.26-2.34,4.36,4.36,0,0,0-.82-1.73A1.81,1.81,0,0,0,835,181.89Z"/></g></g><g id="shape168-70"><rect class="cls-8" x="767.5" y="150.36" width="85.5" height="28" rx="9"/><g class="cls-6"><g class="cls-6"><path class="cls-7" d="M798.76,145.24l0,5.61-5.56,3.09,6.68,5.41-9.4,7,3.89-6.33-8.22-6.25,0-.07Z"/></g><g class="cls-6"><path class="cls-9" d="M806.8,154.57H810v5.25h5.21v3.26H810v5.25H806.8v-5.25h-5.21v-3.26h5.21Z"/><path class="cls-9" d="M823.2,154.57h3.24v5.25h5.2v3.26h-5.2v5.25H823.2v-5.25H818v-3.26h5.2Z"/></g></g></g><g id="shape171-74"><path class="cls-3" d="M810.25,206.45V296"/></g><g id="shape108-77"><path class="cls-8"/><path class="cls-4" d="M375.66,170.81"/></g><g id="shape98-84"><rect class="cls-8" x="36.25" y="279.25" width="279" height="39.5"/><path class="cls-11" d="M92.93,302a6.58,6.58,0,0,1-.65,3,4.89,4.89,0,0,1-1.82,2,5.15,5.15,0,0,1-2.75.72,12.26,12.26,0,0,1-1.51-.09,8.3,8.3,0,0,1-1.37-.28,7.06,7.06,0,0,1-1.24-.47v-2.26a7.94,7.94,0,0,0,2,.79,8.36,8.36,0,0,0,2,.28,2.83,2.83,0,0,0,1.68-.48,3,3,0,0,0,1-1.26,4.18,4.18,0,0,0,.36-1.75,4.28,4.28,0,0,0-.3-1.7,3.38,3.38,0,0,0-1-1.25A10.88,10.88,0,0,0,87.58,298a13.81,13.81,0,0,1-1.58-1,6.06,6.06,0,0,1-1.22-1.14,4.55,4.55,0,0,1-.78-1.5,6.88,6.88,0,0,1-.27-2.05,5.4,5.4,0,0,1,.62-2.75,4.56,4.56,0,0,1,1.8-1.84,5.26,5.26,0,0,1,2.65-.65,8.54,8.54,0,0,1,2.17.28,9.33,9.33,0,0,1,1.78.68l-.71,2a8.12,8.12,0,0,0-1.65-.68,5.82,5.82,0,0,0-1.55-.23,3,3,0,0,0-1.57.4,2.67,2.67,0,0,0-1,1.09,3.4,3.4,0,0,0-.35,1.6,4.14,4.14,0,0,0,.31,1.74,3.15,3.15,0,0,0,1,1.22,14.19,14.19,0,0,0,1.83,1.15,10.19,10.19,0,0,1,2.16,1.47,5.11,5.11,0,0,1,1.28,1.78A5.79,5.79,0,0,1,92.93,302Z"/><path class="cls-11" d="M105.15,299.89a15.65,15.65,0,0,1-.3,3.21,7.83,7.83,0,0,1-.92,2.46,4.1,4.1,0,0,1-3.78,2.12,4.22,4.22,0,0,1-2.16-.54,4.48,4.48,0,0,1-1.55-1.57,8.09,8.09,0,0,1-.93-2.46,15.1,15.1,0,0,1-.31-3.22,14.71,14.71,0,0,1,.53-4.22A5.39,5.39,0,0,1,97.37,293a4.34,4.34,0,0,1,2.82-.91,4.18,4.18,0,0,1,2.7.89,5.38,5.38,0,0,1,1.69,2.61A13.75,13.75,0,0,1,105.15,299.89Zm-7.81,0a15.15,15.15,0,0,0,.3,3.28,4.24,4.24,0,0,0,.94,2,2.18,2.18,0,0,0,1.62.67,2.07,2.07,0,0,0,1.59-.66,4.12,4.12,0,0,0,.93-2,15.36,15.36,0,0,0,.3-3.32,15.05,15.05,0,0,0-.3-3.27,4.25,4.25,0,0,0-.93-2,2.1,2.1,0,0,0-1.6-.66A2.25,2.25,0,0,0,98,295.45,11.41,11.41,0,0,0,97.34,299.89Z"/><path class="cls-11" d="M112.89,294.17h-2.37v13.24h-2.09V294.17h-1.84V293l1.84-.71v-1a12,12,0,0,1,.3-2.9,3.28,3.28,0,0,1,1-1.81,3,3,0,0,1,2-.62,5.52,5.52,0,0,1,1.11.1,8,8,0,0,1,1.06.33l-.55,1.7a6.12,6.12,0,0,0-.71-.21,3.14,3.14,0,0,0-.67-.08,1.14,1.14,0,0,0-1.15.75,8.09,8.09,0,0,0-.34,2.68v1.14h2.37Z"/><path class="cls-11" d="M118.66,305.82a3.14,3.14,0,0,0,.68-.07,3.63,3.63,0,0,0,.66-.21v1.72a4.61,4.61,0,0,1-2,.42,2.69,2.69,0,0,1-1.59-.43,2.51,2.51,0,0,1-.92-1.31,6.81,6.81,0,0,1-.29-2.18v-9.6h-1.4V293l1.49-.56.56-3.46h1.45v3.41h2.54v1.76h-2.54v9.35a4.07,4.07,0,0,0,.28,1.74A1.1,1.1,0,0,0,118.66,305.82Z"/><path class="cls-11" d="M131.07,307.41l-1.8-9.31c-.05-.26-.09-.52-.14-.79s-.09-.55-.13-.82l-.12-.82c0-.27-.07-.53-.1-.78h-.07q-.06.39-.12.81l-.12.83c0,.27-.09.54-.13.8s-.09.52-.14.77l-1.91,9.31h-2.41l-3.24-15h2.11l1.6,7.82c.09.49.18,1,.27,1.51s.18,1,.26,1.54.16,1,.23,1.54h.08c0-.32.1-.65.15-1s.1-.72.16-1.1.13-.77.2-1.17.15-.82.24-1.24l1.63-7.9h2.34l1.61,7.94c.09.35.16.75.24,1.2s.16,1,.24,1.51.17,1.13.26,1.76h.08c0-.27.07-.57.11-.89s.1-.66.17-1,.13-.78.22-1.21l1.91-9.27h2.05l-3.31,15Z"/><path class="cls-11" d="M142.9,292.12a3.31,3.31,0,0,1,3,1.33,6.86,6.86,0,0,1,.89,3.84v10.12h-1.6l-.31-2.13h-.06a4.85,4.85,0,0,1-.84,1.3,3.27,3.27,0,0,1-1.12.82,3.51,3.51,0,0,1-1.45.28,2.85,2.85,0,0,1-1.9-.61,3.6,3.6,0,0,1-1.1-1.62,6.63,6.63,0,0,1-.35-2.17,4.6,4.6,0,0,1,1.28-3.46,5.46,5.46,0,0,1,3.65-1.34l1.71-.11v-1a5.34,5.34,0,0,0-.49-2.64,1.71,1.71,0,0,0-1.59-.84,4.56,4.56,0,0,0-1.32.22,7.27,7.27,0,0,0-1.49.7l-.67-1.59a6.69,6.69,0,0,1,1.81-.81A7.3,7.3,0,0,1,142.9,292.12Zm1.79,7.8-1.4.09a3.47,3.47,0,0,0-2.35.9,3.17,3.17,0,0,0-.78,2.32,3.39,3.39,0,0,0,.51,2.07,1.64,1.64,0,0,0,1.39.67,2.14,2.14,0,0,0,1.94-1.2,6.7,6.7,0,0,0,.69-3.32Z"/><path class="cls-11" d="M155.39,292.14a3.35,3.35,0,0,1,.63.05,4.42,4.42,0,0,1,.66.15l-.33,2.16a2.23,2.23,0,0,0-.52-.15,5.3,5.3,0,0,0-.59,0,1.76,1.76,0,0,0-1.12.41,3.2,3.2,0,0,0-.89,1.12,7,7,0,0,0-.56,1.68,9.11,9.11,0,0,0-.19,2.07v7.82h-2.1v-15H152l.28,2.66h.14a7.58,7.58,0,0,1,.74-1.51,3.51,3.51,0,0,1,1-1A2.14,2.14,0,0,1,155.39,292.14Z"/><path class="cls-11" d="M162.9,292.15a3.64,3.64,0,0,1,2.52.89,5.3,5.3,0,0,1,1.48,2.39,11,11,0,0,1,.48,3.35v1.49h-7.15a8.54,8.54,0,0,0,.87,4.21,2.77,2.77,0,0,0,2.54,1.41,5.31,5.31,0,0,0,1.58-.24,6.75,6.75,0,0,0,1.62-.8v1.89a6,6,0,0,1-1.63.71,7,7,0,0,1-1.8.23,4.49,4.49,0,0,1-3-1,5.76,5.76,0,0,1-1.69-2.75,13.67,13.67,0,0,1-.52-3.94,14.68,14.68,0,0,1,.53-4.27,5.53,5.53,0,0,1,1.59-2.66A3.87,3.87,0,0,1,162.9,292.15Zm0,1.72A2.08,2.08,0,0,0,161,295a8,8,0,0,0-.78,3.56h5.16a9.51,9.51,0,0,0-.27-2.34,4.23,4.23,0,0,0-.82-1.73A1.81,1.81,0,0,0,162.9,293.87Z"/><path class="cls-11" d="M181.86,289.09a3.19,3.19,0,0,0-2,.67,4.92,4.92,0,0,0-1.4,1.84,10.64,10.64,0,0,0-.79,2.66,18.82,18.82,0,0,0-.25,3.16,15.11,15.11,0,0,0,.57,4.42,6.47,6.47,0,0,0,1.6,2.87,3.4,3.4,0,0,0,2.45,1,6,6,0,0,0,1.6-.21A8.62,8.62,0,0,0,185,305v2a5,5,0,0,1-1.46.57,8.16,8.16,0,0,1-1.77.18,5.36,5.36,0,0,1-3.52-1.23,7.77,7.77,0,0,1-2.3-3.53,16.76,16.76,0,0,1-.81-5.53,18.7,18.7,0,0,1,.41-4,10.75,10.75,0,0,1,1.23-3.28,6.27,6.27,0,0,1,2.08-2.22,5.32,5.32,0,0,1,2.95-.8,7,7,0,0,1,1.9.25,7.56,7.56,0,0,1,1.74.73l-.78,1.85a6.14,6.14,0,0,0-1.32-.63A4.8,4.8,0,0,0,181.86,289.09Z"/><path class="cls-11" d="M197.24,299.89a15.65,15.65,0,0,1-.3,3.21,7.83,7.83,0,0,1-.91,2.46,4.13,4.13,0,0,1-3.79,2.12,4.22,4.22,0,0,1-2.16-.54,4.48,4.48,0,0,1-1.55-1.57,8.09,8.09,0,0,1-.93-2.46,15.1,15.1,0,0,1-.31-3.22,14.71,14.71,0,0,1,.53-4.22,5.46,5.46,0,0,1,1.64-2.64,4.34,4.34,0,0,1,2.82-.91A4.21,4.21,0,0,1,195,293a5.3,5.3,0,0,1,1.68,2.61A13.75,13.75,0,0,1,197.24,299.89Zm-7.8,0a15.15,15.15,0,0,0,.3,3.28,4.24,4.24,0,0,0,.93,2,2.18,2.18,0,0,0,1.62.67,2.11,2.11,0,0,0,1.6-.66,4.21,4.21,0,0,0,.92-2,15.36,15.36,0,0,0,.3-3.32,15.05,15.05,0,0,0-.3-3.27,4.34,4.34,0,0,0-.92-2,2.12,2.12,0,0,0-1.61-.66,2.24,2.24,0,0,0-2.17,1.48A11.23,11.23,0,0,0,189.44,299.89Z"/><path class="cls-11" d="M205.67,292.12a3.14,3.14,0,0,1,2.69,1.25,6.45,6.45,0,0,1,.91,3.81v10.23h-2.1v-9.8a6.12,6.12,0,0,0-.47-2.72,1.57,1.57,0,0,0-1.49-.91,2.28,2.28,0,0,0-2.16,1.32,9.72,9.72,0,0,0-.68,4.21v7.9h-2.11v-15H202l.23,2.17h.14a4.59,4.59,0,0,1,.8-1.3,3.78,3.78,0,0,1,1.14-.85A3.27,3.27,0,0,1,205.67,292.12Z"/><path class="cls-11" d="M219.56,303.44a5,5,0,0,1-.5,2.31,3.26,3.26,0,0,1-1.43,1.44,4.79,4.79,0,0,1-2.27.49,7.06,7.06,0,0,1-1.9-.24,6.71,6.71,0,0,1-1.46-.59v-2.19a4.8,4.8,0,0,0,1.49.81,5.12,5.12,0,0,0,1.8.33,2.1,2.1,0,0,0,1.62-.61,2.34,2.34,0,0,0,.57-1.68,2.56,2.56,0,0,0-.23-1.11,2.81,2.81,0,0,0-.75-.9,9,9,0,0,0-1.35-.91,13.12,13.12,0,0,1-1.64-1.19,4.49,4.49,0,0,1-1.12-1.42,4.4,4.4,0,0,1-.39-2,3.73,3.73,0,0,1,1.14-2.83,4.19,4.19,0,0,1,3-1.08,6.51,6.51,0,0,1,1.79.24,6,6,0,0,1,1.59.72l-.79,1.7a5.11,5.11,0,0,0-1.23-.63,3.8,3.8,0,0,0-1.33-.23,2.15,2.15,0,0,0-1.58.56A2,2,0,0,0,214,296a2.39,2.39,0,0,0,.23,1.08,2.77,2.77,0,0,0,.77.87,11.82,11.82,0,0,0,1.4,1,13.14,13.14,0,0,1,1.64,1.2,4.49,4.49,0,0,1,1.1,1.4A4.4,4.4,0,0,1,219.56,303.44Z"/><path class="cls-11" d="M231.25,292.4v15h-1.69l-.23-2.13h-.15a4.2,4.2,0,0,1-.79,1.27,3.33,3.33,0,0,1-1.11.84,3.68,3.68,0,0,1-3.52-.36,3.72,3.72,0,0,1-1.16-1.88,10.23,10.23,0,0,1-.36-2.89V292.4h2.1v9.46a7.17,7.17,0,0,0,.47,3,1.54,1.54,0,0,0,1.45,1,2.41,2.41,0,0,0,1.68-.58,3.45,3.45,0,0,0,.91-1.77,13.11,13.11,0,0,0,.29-3V292.4Z"/><path class="cls-11" d="M246.69,292.12a2.94,2.94,0,0,1,2.62,1.28,7.1,7.1,0,0,1,.86,3.89v10.12h-2.11v-9.75a5.8,5.8,0,0,0-.5-2.82,1.58,1.58,0,0,0-1.44-.86,2,2,0,0,0-2,1.29,9.13,9.13,0,0,0-.59,3.72v8.42H241.5v-9.78a8.26,8.26,0,0,0-.22-2.14,2.23,2.23,0,0,0-.65-1.15,1.65,1.65,0,0,0-1.09-.36,1.86,1.86,0,0,0-1.55.7,4.19,4.19,0,0,0-.76,1.91,16.5,16.5,0,0,0-.22,2.78v8h-2.1v-15h1.68l.25,2.13H237a4.42,4.42,0,0,1,.74-1.3,3.16,3.16,0,0,1,1.07-.82,3.34,3.34,0,0,1,1.4-.29,2.87,2.87,0,0,1,2.05.71,3.53,3.53,0,0,1,1,1.77h.15a4.44,4.44,0,0,1,1.3-1.87A3.25,3.25,0,0,1,246.69,292.12Z"/><path class="cls-11" d="M257.9,292.15a3.65,3.65,0,0,1,2.53.89,5.29,5.29,0,0,1,1.47,2.39,10.71,10.71,0,0,1,.49,3.35v1.49h-7.15a8.54,8.54,0,0,0,.87,4.21,2.75,2.75,0,0,0,2.53,1.41,5.38,5.38,0,0,0,1.59-.24,6.52,6.52,0,0,0,1.61-.8v1.89a6.1,6.1,0,0,1-1.62.71,7.07,7.07,0,0,1-1.81.23,4.45,4.45,0,0,1-3-1,5.68,5.68,0,0,1-1.69-2.75,13.66,13.66,0,0,1-.53-3.94,15,15,0,0,1,.53-4.27,5.54,5.54,0,0,1,1.6-2.66A3.85,3.85,0,0,1,257.9,292.15Zm0,1.72a2.05,2.05,0,0,0-1.85,1.16,8,8,0,0,0-.78,3.56h5.15a9.51,9.51,0,0,0-.27-2.34,4.1,4.1,0,0,0-.82-1.73A1.79,1.79,0,0,0,257.9,293.87Z"/><path class="cls-11" d="M270.37,292.14a3.35,3.35,0,0,1,.63.05,4.42,4.42,0,0,1,.66.15l-.33,2.16a2.23,2.23,0,0,0-.52-.15,5.3,5.3,0,0,0-.59,0,1.76,1.76,0,0,0-1.12.41,3.2,3.2,0,0,0-.89,1.12,7,7,0,0,0-.56,1.68,9.11,9.11,0,0,0-.19,2.07v7.82h-2.1v-15H267l.28,2.66h.14a7.58,7.58,0,0,1,.74-1.51,3.51,3.51,0,0,1,1-1A2.14,2.14,0,0,1,270.37,292.14Z"/><path class="cls-11" d="M280.42,303.44a5,5,0,0,1-.49,2.31,3.32,3.32,0,0,1-1.43,1.44,4.79,4.79,0,0,1-2.27.49,7.13,7.13,0,0,1-1.91-.24,6.92,6.92,0,0,1-1.46-.59v-2.19a4.91,4.91,0,0,0,1.49.81,5.17,5.17,0,0,0,1.81.33,2.1,2.1,0,0,0,1.62-.61,2.38,2.38,0,0,0,.56-1.68,2.42,2.42,0,0,0-.23-1.11,2.65,2.65,0,0,0-.74-.9,9,9,0,0,0-1.35-.91,14.06,14.06,0,0,1-1.65-1.19,4.32,4.32,0,0,1-1.11-1.42,4.26,4.26,0,0,1-.4-2A3.73,3.73,0,0,1,274,293.2a4.22,4.22,0,0,1,3-1.08,6.43,6.43,0,0,1,1.78.24,6.2,6.2,0,0,1,1.6.72l-.8,1.7a4.87,4.87,0,0,0-1.22-.63,3.8,3.8,0,0,0-1.33-.23,2.14,2.14,0,0,0-1.58.56,2,2,0,0,0-.58,1.5,2.27,2.27,0,0,0,.23,1.08,2.73,2.73,0,0,0,.76.87,13,13,0,0,0,1.41,1,13.14,13.14,0,0,1,1.64,1.2,4.64,4.64,0,0,1,1.1,1.4A4.4,4.4,0,0,1,280.42,303.44Z"/><path class="cls-11" d="M82.51,309.12v-.69H281.32v.69Z"/></g><g id="shape107-88"><path class="cls-8"/><path class="cls-4" d="M695.17,365.64"/></g><line class="cls-13" x1="242.42" y1="365.64" x2="699.18" y2="365.64"/><path d="M230.35,365.64c5.68,2.1,12.73,5.7,17.09,9.51L244,365.64l3.44-9.51C243.08,359.94,236,363.53,230.35,365.64Z"/><path d="M711.25,365.64c-5.68,2.1-12.73,5.7-17.1,9.51l3.44-9.51-3.44-9.51C698.52,359.94,705.57,363.53,711.25,365.64Z"/><line class="cls-13" x1="284.57" y1="170.81" x2="379.67" y2="170.81"/><path d="M272.5,170.81c5.68,2.11,12.73,5.7,17.09,9.51l-3.44-9.51,3.44-9.51C285.23,165.11,278.18,168.71,272.5,170.81Z"/><path d="M391.74,170.81c-5.68,2.11-12.73,5.7-17.1,9.51l3.45-9.51-3.45-9.51C379,165.11,386.06,168.71,391.74,170.81Z"/><line class="cls-13" x1="597.32" y1="170.23" x2="699.18" y2="170.23"/><path d="M585.25,170.23c5.68,2.1,12.73,5.7,17.09,9.51l-3.44-9.51,3.44-9.51C598,164.52,590.93,168.12,585.25,170.23Z"/><path d="M711.25,170.23c-5.68,2.1-12.73,5.7-17.1,9.51l3.44-9.51-3.44-9.51C698.52,164.52,705.57,168.12,711.25,170.23Z"/></svg>